<svg width="60" height="60" viewBox="0 0 60 60" fill="none" xmlns="http://www.w3.org/2000/svg">
<path d="M53.4375 37.0179H6.5625C3.975 37.0179 1.875 39.1179 1.875 41.7054V51.0804C1.875 53.6679 3.975 55.7679 6.5625 55.7679H53.4375C56.025 55.7679 58.125 53.6679 58.125 51.0804V41.7054C58.125 39.1179 56.025 37.0179 53.4375 37.0179ZM54.375 51.0804C54.375 51.6054 53.9625 52.0179 53.4375 52.0179H6.5625C6.0375 52.0179 5.625 51.6054 5.625 51.0804V41.7054C5.625 41.1804 6.0375 40.7679 6.5625 40.7679H53.4375C53.9625 40.7679 54.375 41.1804 54.375 41.7054V51.0804Z" fill="white"/>
<path d="M38.8319 43.1867C38.1007 42.4554 36.9194 42.4554 36.1882 43.1867L35.6444 43.7304L35.1007 43.1867C34.3694 42.4554 33.1882 42.4554 32.4569 43.1867C31.7257 43.9179 31.7257 45.0992 32.4569 45.8304L33.0007 46.3742L32.4569 46.9179C31.7257 47.6492 31.7257 48.8304 32.4569 49.5617C32.8319 49.9367 33.3007 50.1054 33.7882 50.1054C34.2757 50.1054 34.7444 49.9179 35.1194 49.5617L35.6632 49.0179L36.2069 49.5617C36.5819 49.9367 37.0507 50.1054 37.5382 50.1054C38.0257 50.1054 38.4944 49.9179 38.8694 49.5617C39.6007 48.8304 39.6007 47.6492 38.8694 46.9179L38.3257 46.3742L38.8694 45.8304C39.6007 45.0992 39.6007 43.9179 38.8694 43.1867H38.8319Z" fill="white"/>
<path d="M27.5819 43.1867C26.8507 42.4554 25.6694 42.4554 24.9382 43.1867L24.3944 43.7304L23.8507 43.1867C23.1194 42.4554 21.9382 42.4554 21.2069 43.1867C20.4757 43.9179 20.4757 45.0992 21.2069 45.8304L21.7507 46.3742L21.2069 46.9179C20.4757 47.6492 20.4757 48.8304 21.2069 49.5617C21.5819 49.9367 22.0507 50.1054 22.5382 50.1054C23.0257 50.1054 23.4944 49.9179 23.8694 49.5617L24.4132 49.0179L24.9569 49.5617C25.3319 49.9367 25.8007 50.1054 26.2882 50.1054C26.7757 50.1054 27.2444 49.9179 27.6194 49.5617C28.3507 48.8304 28.3507 47.6492 27.6194 46.9179L27.0757 46.3742L27.6194 45.8304C28.3507 45.0992 28.3507 43.9179 27.6194 43.1867H27.5819Z" fill="white"/>
<path d="M16.3319 43.1867C15.6007 42.4554 14.4194 42.4554 13.6882 43.1867L13.1444 43.7304L12.6007 43.1867C11.8694 42.4554 10.6882 42.4554 9.95692 43.1867C9.22567 43.9179 9.22567 45.0992 9.95692 45.8304L10.5007 46.3742L9.95692 46.9179C9.22567 47.6492 9.22567 48.8304 9.95692 49.5617C10.3319 49.9367 10.8007 50.1054 11.2882 50.1054C11.7757 50.1054 12.2444 49.9179 12.6194 49.5617L13.1632 49.0179L13.7069 49.5617C14.0819 49.9367 14.5507 50.1054 15.0382 50.1054C15.5257 50.1054 15.9944 49.9179 16.3694 49.5617C17.1007 48.8304 17.1007 47.6492 16.3694 46.9179L15.8257 46.3742L16.3694 45.8304C17.1007 45.0992 17.1007 43.9179 16.3694 43.1867H16.3319Z" fill="white"/>
<path d="M50.0819 43.1867C49.3507 42.4554 48.1694 42.4554 47.4382 43.1867L46.8944 43.7304L46.3507 43.1867C45.6194 42.4554 44.4382 42.4554 43.7069 43.1867C42.9757 43.9179 42.9757 45.0992 43.7069 45.8304L44.2507 46.3742L43.7069 46.9179C42.9757 47.6492 42.9757 48.8304 43.7069 49.5617C44.0819 49.9367 44.5507 50.1054 45.0382 50.1054C45.5257 50.1054 45.9944 49.9179 46.3694 49.5617L46.9132 49.0179L47.4569 49.5617C47.8319 49.9367 48.3007 50.1054 48.7882 50.1054C49.2757 50.1054 49.7444 49.9179 50.1194 49.5617C50.8507 48.8304 50.8507 47.6492 50.1194 46.9179L49.5757 46.3742L50.1194 45.8304C50.8507 45.0992 50.8507 43.9179 50.1194 43.1867H50.0819Z" fill="white"/>
<path d="M30 16.875C32.5888 16.875 34.6875 14.7763 34.6875 12.1875C34.6875 9.59867 32.5888 7.5 30 7.5C27.4112 7.5 25.3125 9.59867 25.3125 12.1875C25.3125 14.7763 27.4112 16.875 30 16.875Z" fill="#7738C8"/>
<path d="M35.4 18.6188C33.9375 19.8563 32.0625 20.625 30 20.625C27.9375 20.625 26.0625 19.8563 24.6 18.6188C22.2 20.325 20.625 23.1 20.625 26.25V27.1875C20.625 29.775 22.725 31.875 25.3125 31.875H34.6875C37.275 31.875 39.375 29.775 39.375 27.1875V26.25C39.375 23.1 37.8 20.3063 35.4 18.6188Z" fill="#7738C8"/>
</svg>
