<svg width="60" height="60" viewBox="0 0 60 60" fill="none" xmlns="http://www.w3.org/2000/svg">
<path d="M57.9375 29.175C55.443 23.8583 51.4969 19.3546 46.554 16.1832C41.6111 13.0118 35.8726 11.3017 30 11.25C24.1274 11.3017 18.3889 13.0118 13.446 16.1832C8.50311 19.3546 4.55699 23.8583 2.0625 29.175C1.93667 29.4318 1.87125 29.714 1.87125 30C1.87125 30.286 1.93667 30.5682 2.0625 30.825C4.55699 36.1417 8.50311 40.6454 13.446 43.8168C18.3889 46.9882 24.1274 48.6983 30 48.75C35.8726 48.6983 41.6111 46.9882 46.554 43.8168C51.4969 40.6454 55.443 36.1417 57.9375 30.825C58.0633 30.5682 58.1288 30.286 58.1288 30C58.1288 29.714 58.0633 29.4318 57.9375 29.175ZM30 45C24.9875 44.9487 20.0851 43.5229 15.8268 40.878C11.5686 38.2332 8.11768 34.4706 5.85 30C8.11768 25.5294 11.5686 21.7668 15.8268 19.122C20.0851 16.4771 24.9875 15.0513 30 15C35.0125 15.0513 39.9149 16.4771 44.1732 19.122C48.4314 21.7668 51.8823 25.5294 54.15 30C51.8823 34.4706 48.4314 38.2332 44.1732 40.878C39.9149 43.5229 35.0125 44.9487 30 45Z" fill="white"/>
<path d="M30 7.5C30.4973 7.5 30.9742 7.30246 31.3258 6.95083C31.6775 6.59919 31.875 6.12228 31.875 5.625V3.75C31.875 3.25272 31.6775 2.77581 31.3258 2.42417C30.9742 2.07254 30.4973 1.875 30 1.875C29.5027 1.875 29.0258 2.07254 28.6742 2.42417C28.3225 2.77581 28.125 3.25272 28.125 3.75V5.625C28.125 6.12228 28.3225 6.59919 28.6742 6.95083C29.0258 7.30246 29.5027 7.5 30 7.5Z" fill="white"/>
<path d="M18.2625 8.4C18.4323 8.65793 18.6633 8.86991 18.9348 9.0171C19.2063 9.1643 19.5099 9.24215 19.8187 9.24375C20.158 9.24539 20.4913 9.15496 20.7832 8.9821C21.0751 8.80924 21.3147 8.56041 21.4763 8.26215C21.638 7.96388 21.7156 7.62735 21.7011 7.28841C21.6866 6.94947 21.5803 6.62083 21.3937 6.3375L20.3062 4.725C20.1829 4.4951 20.013 4.29346 19.8073 4.13299C19.6016 3.97251 19.3647 3.85672 19.1117 3.79304C18.8587 3.72935 18.5952 3.71915 18.338 3.76311C18.0809 3.80707 17.8357 3.90421 17.6182 4.04832C17.4008 4.19243 17.2157 4.38034 17.075 4.60003C16.9343 4.81972 16.841 5.06635 16.8011 5.32417C16.7611 5.58198 16.7754 5.84529 16.843 6.09726C16.9106 6.34924 17.0301 6.58433 17.1937 6.7875L18.2625 8.4Z" fill="white"/>
<path d="M39.15 8.94375C39.5656 9.21334 40.0711 9.30747 40.5559 9.20559C41.0407 9.1037 41.4655 8.81409 41.7375 8.4L42.8063 6.7875C42.9699 6.58433 43.0894 6.34924 43.157 6.09726C43.2246 5.84529 43.2389 5.58198 43.1989 5.32417C43.159 5.06635 43.0657 4.81972 42.925 4.60003C42.7843 4.38034 42.5992 4.19243 42.3818 4.04832C42.1643 3.90421 41.9191 3.80707 41.662 3.76311C41.4048 3.71915 41.1413 3.72935 40.8883 3.79304C40.6353 3.85672 40.3984 3.97251 40.1927 4.13299C39.987 4.29346 39.8171 4.4951 39.6938 4.725L38.6063 6.3375C38.4698 6.54402 38.3757 6.7755 38.3292 7.0186C38.2826 7.2617 38.2847 7.5116 38.3353 7.75389C38.3858 7.99617 38.4838 8.22606 38.6237 8.43028C38.7635 8.6345 38.9424 8.80901 39.15 8.94375Z" fill="white"/>
<path d="M30 52.5C29.5027 52.5 29.0258 52.6975 28.6742 53.0492C28.3225 53.4008 28.125 53.8777 28.125 54.375V56.25C28.125 56.7473 28.3225 57.2242 28.6742 57.5758C29.0258 57.9275 29.5027 58.125 30 58.125C30.4973 58.125 30.9742 57.9275 31.3258 57.5758C31.6775 57.2242 31.875 56.7473 31.875 56.25V54.375C31.875 53.8777 31.6775 53.4008 31.3258 53.0492C30.9742 52.6975 30.4973 52.5 30 52.5Z" fill="white"/>
<path d="M20.85 51.0562C20.4344 50.7867 19.9289 50.6925 19.4441 50.7944C18.9593 50.8963 18.5345 51.1859 18.2625 51.6L17.1937 53.2125C17.0301 53.4157 16.9106 53.6508 16.843 53.9027C16.7754 54.1547 16.7611 54.418 16.8011 54.6758C16.841 54.9336 16.9343 55.1803 17.075 55.4C17.2157 55.6197 17.4008 55.8076 17.6182 55.9517C17.8357 56.0958 18.0809 56.1929 18.338 56.2369C18.5952 56.2808 18.8587 56.2707 19.1117 56.207C19.3647 56.1433 19.6016 56.0275 19.8073 55.867C20.013 55.7065 20.1829 55.5049 20.3062 55.275L21.3937 53.6625C21.5302 53.456 21.6243 53.2245 21.6709 52.9814C21.7174 52.7383 21.7153 52.4884 21.6647 52.2461C21.6142 52.0038 21.5162 51.7739 21.3763 51.5697C21.2365 51.3655 21.0576 51.191 20.85 51.0562Z" fill="white"/>
<path d="M41.7375 51.6C41.4655 51.1859 41.0407 50.8963 40.5559 50.7944C40.0711 50.6925 39.5656 50.7867 39.15 51.0562C38.9424 51.191 38.7635 51.3655 38.6237 51.5697C38.4838 51.7739 38.3858 52.0038 38.3353 52.2461C38.2847 52.4884 38.2826 52.7383 38.3292 52.9814C38.3757 53.2245 38.4698 53.456 38.6063 53.6625L39.6938 55.275C39.8171 55.5049 39.987 55.7065 40.1927 55.867C40.3984 56.0275 40.6353 56.1433 40.8883 56.207C41.1413 56.2707 41.4048 56.2808 41.662 56.2369C41.9191 56.1929 42.1643 56.0958 42.3818 55.9517C42.5992 55.8076 42.7843 55.6197 42.925 55.4C43.0657 55.1803 43.159 54.9336 43.1989 54.6758C43.2389 54.418 43.2246 54.1547 43.157 53.9027C43.0894 53.6508 42.9699 53.4157 42.8063 53.2125L41.7375 51.6Z" fill="white"/>
<path d="M40.2188 28.95V28.725C40.1676 28.3102 39.9792 27.9244 39.6837 27.6288C39.3881 27.3333 39.0023 27.1449 38.5875 27.0937C37.161 26.9074 35.836 26.2549 34.8187 25.2376C33.8014 24.2203 33.1488 22.8953 32.9625 21.4687C32.9113 21.0539 32.723 20.6681 32.4274 20.3726C32.1319 20.077 31.7461 19.8887 31.3313 19.8375H31.1063C30.7425 19.7555 30.3724 19.7053 30 19.6875C27.9604 19.6875 25.9666 20.2923 24.2707 21.4255C22.5748 22.5586 21.253 24.1692 20.4725 26.0536C19.692 27.9379 19.4877 30.0114 19.8857 32.0119C20.2836 34.0123 21.2657 35.8498 22.708 37.292C24.1502 38.7343 25.9877 39.7164 27.9881 40.1143C29.9886 40.5123 32.0621 40.308 33.9464 39.5275C35.8308 38.747 37.4414 37.4252 38.5745 35.7293C39.7077 34.0334 40.3125 32.0396 40.3125 30C40.3092 29.6481 40.2779 29.297 40.2188 28.95Z" fill="#7738C8"/>
</svg>
