<svg width="60" height="60" viewBox="0 0 60 60" fill="none" xmlns="http://www.w3.org/2000/svg">
<path d="M53.7375 6.26248C50.9247 3.45156 47.1109 1.87256 43.1344 1.87256C39.1578 1.87256 35.344 3.45156 32.5313 6.26248L25.5938 13.125C25.2 13.125 24.7875 13.125 24.375 13.125C19.9249 13.125 15.5748 14.4446 11.8747 16.9169C8.17457 19.3892 5.29069 22.9033 3.58772 27.0146C1.88475 31.1259 1.43917 35.6499 2.30734 40.0145C3.17551 44.3791 5.31843 48.3882 8.46511 51.5349C11.6118 54.6816 15.6209 56.8245 19.9855 57.6926C24.35 58.5608 28.874 58.1152 32.9854 56.4123C37.0967 54.7093 40.6107 51.8254 43.0831 48.1253C45.5554 44.4252 46.875 40.0751 46.875 35.625C46.875 35.2125 46.875 34.8 46.875 34.4062L53.7938 27.4687C56.5972 24.6485 58.1661 20.8305 58.1556 16.854C58.145 12.8774 56.5559 9.06778 53.7375 6.26248ZM24.375 54.375C20.6666 54.375 17.0415 53.2753 13.9581 51.215C10.8746 49.1548 8.47141 46.2264 7.05227 42.8003C5.63313 39.3742 5.26181 35.6042 5.98529 31.967C6.70876 28.3299 8.49452 24.989 11.1168 22.3667C13.739 19.7445 17.0799 17.9587 20.7171 17.2353C24.3542 16.5118 28.1242 16.8831 31.5503 18.3022C34.9764 19.7214 37.9048 22.1246 39.9651 25.208C42.0253 28.2915 43.125 31.9166 43.125 35.625C43.125 38.0873 42.64 40.5254 41.6978 42.8003C40.7555 45.0751 39.3744 47.1421 37.6333 48.8832C35.8922 50.6243 33.8252 52.0055 31.5503 52.9477C29.2755 53.89 26.8373 54.375 24.375 54.375ZM37.3875 17.3062L40.4813 14.2125C41.1984 13.5347 42.1477 13.1571 43.1344 13.1571C44.1211 13.1571 45.0704 13.5347 45.7875 14.2125C46.1362 14.5608 46.4128 14.9743 46.6015 15.4296C46.7902 15.8848 46.8873 16.3728 46.8873 16.8656C46.8873 17.3584 46.7902 17.8464 46.6015 18.3016C46.4128 18.7569 46.1362 19.1705 45.7875 19.5187L42.6938 22.6125C41.2378 20.5564 39.4436 18.7622 37.3875 17.3062ZM46.0875 29.8125C45.7277 28.4854 45.2508 27.1928 44.6625 25.95L48.4125 22.2C49.8151 20.794 50.6028 18.8891 50.6028 16.9031C50.6028 14.9171 49.8151 13.0122 48.4125 11.6062C46.9858 10.2435 45.0886 9.48301 43.1156 9.48301C41.1426 9.48301 39.2455 10.2435 37.8188 11.6062L34.0688 15.3562C32.8259 14.768 31.5334 14.2911 30.2063 13.9312L35.1938 8.92498C37.3047 6.81402 40.1678 5.6281 43.1531 5.6281C46.1385 5.6281 49.0015 6.81402 51.1125 8.92498C53.2235 11.0359 54.4094 13.899 54.4094 16.8844C54.4094 19.8697 53.2235 22.7328 51.1125 24.8437L46.0875 29.8125Z" fill="white"/>
<path d="M24.375 20.625C21.4083 20.625 18.5082 21.5047 16.0415 23.153C13.5747 24.8012 11.6521 27.1439 10.5168 29.8847C9.3815 32.6256 9.08445 35.6416 9.66323 38.5514C10.242 41.4611 11.6706 44.1338 13.7684 46.2316C15.8662 48.3294 18.5389 49.758 21.4487 50.3368C24.3584 50.9156 27.3744 50.6185 30.1153 49.4832C32.8561 48.3479 35.1988 46.4253 36.847 43.9585C38.4953 41.4918 39.375 38.5917 39.375 35.625C39.375 31.6468 37.7947 27.8314 34.9816 25.0184C32.1686 22.2054 28.3533 20.625 24.375 20.625ZM31.0875 40.9688C30.9155 41.2232 30.6836 41.4315 30.4123 41.5754C30.1409 41.7192 29.8384 41.7942 29.5313 41.7938C29.1626 41.798 28.802 41.6865 28.5 41.475L23.3438 38.0438C23.0858 37.8739 22.8738 37.643 22.7267 37.3715C22.5795 37.1 22.5016 36.7963 22.5 36.4875V31.3312C22.5 30.834 22.6975 30.3571 23.0492 30.0054C23.4008 29.6538 23.8777 29.4562 24.375 29.4562C24.8723 29.4562 25.3492 29.6538 25.7008 30.0054C26.0525 30.3571 26.25 30.834 26.25 31.3312V35.475L30.5625 38.3625C30.7686 38.4987 30.9458 38.6743 31.0838 38.8792C31.2218 39.0841 31.318 39.3143 31.3668 39.5565C31.4156 39.7987 31.416 40.0481 31.3681 40.2905C31.3202 40.5329 31.2248 40.7634 31.0875 40.9688Z" fill="#7738C8"/>
</svg>
