<svg width="60" height="60" viewBox="0 0 60 60" fill="none" xmlns="http://www.w3.org/2000/svg">
<path d="M30.9375 46.875H21.5625C21.0652 46.875 20.5883 47.0725 20.2367 47.4242C19.885 47.7758 19.6875 48.2527 19.6875 48.75C19.6875 49.2473 19.885 49.7242 20.2367 50.0758C20.5883 50.4275 21.0652 50.625 21.5625 50.625H30.9375C31.4348 50.625 31.9117 50.4275 32.2633 50.0758C32.615 49.7242 32.8125 49.2473 32.8125 48.75C32.8125 48.2527 32.615 47.7758 32.2633 47.4242C31.9117 47.0725 31.4348 46.875 30.9375 46.875Z" fill="white"/>
<path d="M39.375 15C39.8723 15 40.3492 14.8025 40.7008 14.4508C41.0525 14.0992 41.25 13.6223 41.25 13.125V7.5C41.25 6.00816 40.6574 4.57742 39.6025 3.52252C38.5476 2.46763 37.1168 1.875 35.625 1.875H16.875C15.3832 1.875 13.9524 2.46763 12.8975 3.52252C11.8426 4.57742 11.25 6.00816 11.25 7.5V52.5C11.25 53.9918 11.8426 55.4226 12.8975 56.4775C13.9524 57.5324 15.3832 58.125 16.875 58.125H35.625C37.1168 58.125 38.5476 57.5324 39.6025 56.4775C40.6574 55.4226 41.25 53.9918 41.25 52.5V46.875C41.25 46.3777 41.0525 45.9008 40.7008 45.5492C40.3492 45.1975 39.8723 45 39.375 45C38.8777 45 38.4008 45.1975 38.0492 45.5492C37.6975 45.9008 37.5 46.3777 37.5 46.875V52.5C37.5 52.9973 37.3025 53.4742 36.9508 53.8258C36.5992 54.1775 36.1223 54.375 35.625 54.375H16.875C16.3777 54.375 15.9008 54.1775 15.5492 53.8258C15.1975 53.4742 15 52.9973 15 52.5V7.5C15 7.00272 15.1975 6.52581 15.5492 6.17417C15.9008 5.82254 16.3777 5.625 16.875 5.625H18.3375L19.7812 9.975C19.907 10.3474 20.1467 10.6709 20.4663 10.8997C20.786 11.1285 21.1694 11.251 21.5625 11.25H30.9375C31.3306 11.251 31.714 11.1285 32.0337 10.8997C32.3533 10.6709 32.593 10.3474 32.7188 9.975L34.1625 5.625H35.625C36.1223 5.625 36.5992 5.82254 36.9508 6.17417C37.3025 6.52581 37.5 7.00272 37.5 7.5V13.125C37.5 13.6223 37.6975 14.0992 38.0492 14.4508C38.4008 14.8025 38.8777 15 39.375 15ZM29.5875 7.5H22.9125L22.2938 5.625H30.2063L29.5875 7.5Z" fill="white"/>
<path d="M45 16.875H26.25C25.2554 16.875 24.3016 17.2701 23.5984 17.9734C22.8951 18.6766 22.5 19.6304 22.5 20.625V39.375C22.5 40.3696 22.8951 41.3234 23.5984 42.0266C24.3016 42.7299 25.2554 43.125 26.25 43.125H45C45.9946 43.125 46.9484 42.7299 47.6516 42.0266C48.3549 41.3234 48.75 40.3696 48.75 39.375V20.625C48.75 19.6304 48.3549 18.6766 47.6516 17.9734C46.9484 17.2701 45.9946 16.875 45 16.875ZM35.625 33.75C35.4498 33.9238 35.242 34.0613 35.0136 34.1546C34.7851 34.2479 34.5405 34.2952 34.2938 34.2938C33.8019 34.2917 33.3305 34.0964 32.9813 33.75L30.5625 31.3687C30.2133 31.0174 30.0173 30.5422 30.0173 30.0469C30.0173 29.5515 30.2133 29.0763 30.5625 28.725C30.7368 28.5493 30.9442 28.4098 31.1727 28.3146C31.4012 28.2194 31.6462 28.1704 31.8938 28.1704C32.1413 28.1704 32.3863 28.2194 32.6148 28.3146C32.8433 28.4098 33.0507 28.5493 33.225 28.725L34.3687 29.8688L38.1187 26.1188C38.2931 25.943 38.5004 25.8035 38.7289 25.7083C38.9574 25.6131 39.2025 25.5641 39.45 25.5641C39.6975 25.5641 39.9426 25.6131 40.1711 25.7083C40.3996 25.8035 40.6069 25.943 40.7812 26.1188C40.957 26.2931 41.0965 26.5004 41.1917 26.7289C41.2869 26.9574 41.3359 27.2025 41.3359 27.45C41.3359 27.6975 41.2869 27.9426 41.1917 28.1711C41.0965 28.3996 40.957 28.6069 40.7812 28.7813L35.625 33.75Z" fill="#7738C8"/>
</svg>
