<svg width="21" height="21" viewBox="0 0 21 21" fill="none" xmlns="http://www.w3.org/2000/svg">
<g clip-path="url(#clip0_1_8904)">
<path d="M16.0622 15.4508L19.3541 12.1589C19.8887 11.5987 20.1869 10.8542 20.1869 10.0799C20.1869 9.30561 19.8887 8.56108 19.3541 8.00092L16.0622 4.709C15.826 4.47264 15.5055 4.3398 15.1713 4.33972C14.8371 4.33964 14.5165 4.47233 14.2802 4.70858C14.0438 4.94484 13.911 5.26532 13.9109 5.59952C13.9108 5.93371 14.0435 6.25425 14.2798 6.49062L16.6149 8.82663L1.28513 8.84595C0.950961 8.84595 0.63048 8.9787 0.394187 9.21499C0.157894 9.45128 0.0251465 9.77177 0.0251465 10.1059C0.0251465 10.4401 0.157894 10.7606 0.394187 10.9969C0.63048 11.2332 0.950961 11.3659 1.28513 11.3659L16.599 11.3466L14.2798 13.6692C14.0502 13.9068 13.9232 14.2251 13.9261 14.5554C13.929 14.8858 14.0615 15.2018 14.2951 15.4354C14.5287 15.669 14.8447 15.8016 15.1751 15.8044C15.5055 15.8073 15.8237 15.6803 16.0614 15.4508H16.0622Z" fill="white"/>
</g>
<defs>
<clipPath id="clip0_1_8904">
<rect width="20.1597" height="20.1597" fill="white"/>
</clipPath>
</defs>
</svg>
