<svg width="51" height="50" viewBox="0 0 51 50" fill="none" xmlns="http://www.w3.org/2000/svg">
<circle cx="25.75" cy="25" r="25" fill="url(#paint0_linear_0_8775)"/>
<g clip-path="url(#clip0_0_8775)">
<path d="M15.0768 25.4003L18.6368 28.0003L17.2848 32.1873C17.0663 32.8367 17.0635 33.5393 17.2769 34.1904C17.4903 34.8415 17.9083 35.4062 18.4688 35.8003C19.0196 36.2071 19.6872 36.425 20.372 36.4216C21.0567 36.4182 21.722 36.1936 22.2688 35.7813L25.7498 33.2193L29.2318 35.7783C29.7817 36.1828 30.4456 36.4025 31.1282 36.4058C31.8107 36.4091 32.4768 36.1959 33.0306 35.7968C33.5843 35.3978 33.9973 34.8334 34.2101 34.1848C34.4229 33.5362 34.4245 32.8369 34.2148 32.1873L32.8628 28.0003L36.4228 25.4003C36.9719 24.9988 37.3802 24.4341 37.5891 23.7867C37.7981 23.1394 37.7972 22.4425 37.5865 21.7957C37.3758 21.1489 36.966 20.5852 36.4158 20.1852C35.8656 19.7852 35.2031 19.5693 34.5228 19.5683H30.1498L28.8228 15.4323C28.6141 14.7813 28.2041 14.2133 27.6518 13.8104C27.0995 13.4074 26.4335 13.1903 25.7498 13.1903C25.0661 13.1903 24.4001 13.4074 23.8478 13.8104C23.2955 14.2133 22.8855 14.7813 22.6768 15.4323L21.3498 19.5683H16.9808C16.3005 19.5693 15.638 19.7852 15.0878 20.1852C14.5376 20.5852 14.1278 21.1489 13.9171 21.7957C13.7064 22.4425 13.7055 23.1394 13.9145 23.7867C14.1234 24.4341 14.5317 24.9988 15.0808 25.4003H15.0768Z" fill="white"/>
</g>
<defs>
<linearGradient id="paint0_linear_0_8775" x1="0.75" y1="0" x2="56.0673" y2="6.81038" gradientUnits="userSpaceOnUse">
<stop stop-color="#543BEE"/>
<stop offset="1" stop-color="#953BEE"/>
</linearGradient>
<clipPath id="clip0_0_8775">
<rect width="24" height="24" fill="white" transform="translate(13.75 13)"/>
</clipPath>
</defs>
</svg>
