<svg width="100" height="101" viewBox="0 0 100 101" fill="none" xmlns="http://www.w3.org/2000/svg">
<g filter="url(#filter0_d_1_8715)">
<circle cx="50.0001" cy="50.5001" r="30.0001" fill="url(#paint0_linear_1_8715)"/>
</g>
<g clip-path="url(#clip0_1_8715)">
<path d="M58.75 49.25H51.25V41.75C51.25 41.0596 50.6904 40.5 50 40.5C49.3097 40.5 48.75 41.0596 48.75 41.75V49.25H41.25C40.5596 49.25 40 49.8097 40 50.5C40 51.1904 40.5596 51.75 41.25 51.75H48.75V59.25C48.75 59.9404 49.3097 60.5 50 60.5C50.6904 60.5 51.25 59.9404 51.25 59.25V51.75H58.75C59.4404 51.75 60 51.1904 60 50.5C60 49.8097 59.4404 49.25 58.75 49.25Z" fill="white"/>
</g>
<defs>
<filter id="filter0_d_1_8715" x="-4.3869e-05" y="0.499956" width="100" height="100" filterUnits="userSpaceOnUse" color-interpolation-filters="sRGB">
<feFlood flood-opacity="0" result="BackgroundImageFix"/>
<feColorMatrix in="SourceAlpha" type="matrix" values="0 0 0 0 0 0 0 0 0 0 0 0 0 0 0 0 0 0 127 0" result="hardAlpha"/>
<feOffset/>
<feGaussianBlur stdDeviation="10"/>
<feComposite in2="hardAlpha" operator="out"/>
<feColorMatrix type="matrix" values="0 0 0 0 0.466667 0 0 0 0 0.34902 0 0 0 0 1 0 0 0 0.6 0"/>
<feBlend mode="normal" in2="BackgroundImageFix" result="effect1_dropShadow_1_8715"/>
<feBlend mode="normal" in="SourceGraphic" in2="effect1_dropShadow_1_8715" result="shape"/>
</filter>
<linearGradient id="paint0_linear_1_8715" x1="20" y1="20.5" x2="86.3809" y2="28.6725" gradientUnits="userSpaceOnUse">
<stop stop-color="#543BEE"/>
<stop offset="1" stop-color="#953BEE"/>
</linearGradient>
<clipPath id="clip0_1_8715">
<rect width="20" height="20" fill="white" transform="translate(40 40.5)"/>
</clipPath>
</defs>
</svg>
