<!-- Generated by IcoMoon.io -->
<svg version="1.1" xmlns="http://www.w3.org/2000/svg" width="36" height="32" viewBox="0 0 36 32">
<title>logo</title>
<path fill="#313131" d="M19.009 9.615c0 3.040-2.465 5.505-5.505 5.505s-5.505-2.465-5.505-5.505c0-3.040 2.465-5.505 5.505-5.505s5.505 2.465 5.505 5.505z"></path>
<path d="M18.526 12.403c-0.167 0.031-3.398 0.598-5.022-1.46-1.291 1.622-3.579 1.673-4.997 1.466-4.125-1.111-3.807-5.333-3.804-5.374 0.010-0.13 0.099-0.236 0.218-0.273l0.002-0.001c0.028-0.009 0.060-0.014 0.093-0.014 0.098 0 0.185 0.044 0.244 0.114l0 0c0.009 0.013 1.035 1.256 2.36 1.303 0.737 0.031 1.455-0.339 2.102-1.035 0.783-0.622 2.607-1.096 3.782 0.39 0.393-0.497 0.953-0.848 1.595-0.966l0.016-0.003c0.103-0.012 0.222-0.019 0.342-0.019 0.688 0 1.323 0.224 1.838 0.604l-0.009-0.006c0.647 0.696 1.365 1.067 2.102 1.035 1.325-0.047 2.35-1.29 2.36-1.302 0.058-0.069 0.145-0.112 0.242-0.112 0.164 0 0.299 0.124 0.315 0.284l0 0.001c0.003 0.041 0.321 4.263-3.779 5.368z"></path>
</svg>
