<svg width="25" height="25" viewBox="0 0 25 25" fill="none" xmlns="http://www.w3.org/2000/svg">
<path d="M23.4375 10.9375H1.5625C0.699561 10.9375 0 11.6371 0 12.5C0 13.3629 0.699561 14.0625 1.5625 14.0625H23.4375C24.3004 14.0625 25 13.3629 25 12.5C25 11.6371 24.3004 10.9375 23.4375 10.9375Z" fill="white"/>
<path d="M1.5625 6.771H23.4375C24.3004 6.771 25 6.07144 25 5.2085C25 4.34556 24.3004 3.646 23.4375 3.646H1.5625C0.699561 3.646 0 4.34556 0 5.2085C0 6.07144 0.699561 6.771 1.5625 6.771Z" fill="white"/>
<path d="M23.4375 18.2295H1.5625C0.699561 18.2295 0 18.9291 0 19.792C0 20.6549 0.699561 21.3545 1.5625 21.3545H23.4375C24.3004 21.3545 25 20.6549 25 19.792C25 18.9291 24.3004 18.2295 23.4375 18.2295Z" fill="white"/>
</svg>
