<svg width="190" height="109" viewBox="0 0 190 109" fill="none" xmlns="http://www.w3.org/2000/svg">
<g filter="url(#filter0_d_1_9069)">
<circle cx="46" cy="32.75" r="18.75" fill="#313131"/>
</g>
<g filter="url(#filter1_d_1_9069)">
<path d="M63.105 42.2479C62.537 42.3551 51.5301 44.2842 45.9999 37.275C41.6033 42.8005 33.8101 42.9739 28.9805 42.2694C14.9299 38.4861 16.0124 24.1032 16.0231 23.9639C16.0392 23.7508 16.1195 23.5477 16.2535 23.3812C16.3874 23.2148 16.5686 23.0928 16.7733 23.0315C16.977 22.9695 17.1944 22.969 17.3984 23.03C17.6024 23.091 17.7839 23.2108 17.9201 23.3744C17.9522 23.4173 21.4461 27.6507 25.9582 27.8115C28.4673 27.9183 30.9153 26.6561 33.1175 24.2857C35.7846 22.1653 41.9991 20.5511 45.9999 25.6144C47.3624 23.8785 49.3153 22.7038 51.4872 22.3134C54.1122 22.0221 56.7509 22.7258 58.8823 24.2854C61.0849 26.6558 63.5326 27.9185 66.0416 27.8115C70.5536 27.6507 74.0476 23.4173 74.0797 23.3745C74.2167 23.213 74.3981 23.0955 74.6014 23.0364C74.8047 22.9773 75.0209 22.9792 75.2231 23.0421C75.4252 23.1049 75.6045 23.2258 75.7385 23.3897C75.8725 23.5536 75.9553 23.7533 75.9767 23.9639C75.9874 24.1032 77.0699 38.4861 63.105 42.2479Z" fill="url(#paint0_linear_1_9069)"/>
</g>
<path d="M87.66 32V18H90.34L96.3 27.88H94.88L100.74 18H103.4L103.44 32H100.4L100.38 22.66H100.94L96.26 30.52H94.8L90.02 22.66H90.7V32H87.66ZM112.982 32.24C110.995 32.24 109.442 31.6867 108.322 30.58C107.202 29.4733 106.642 27.8933 106.642 25.84V18H109.882V25.72C109.882 27.0533 110.155 28.0133 110.702 28.6C111.248 29.1867 112.015 29.48 113.002 29.48C113.988 29.48 114.755 29.1867 115.302 28.6C115.848 28.0133 116.122 27.0533 116.122 25.72V18H119.322V25.84C119.322 27.8933 118.762 29.4733 117.642 30.58C116.522 31.6867 114.968 32.24 112.982 32.24ZM127.123 32.24C126.003 32.24 124.93 32.0933 123.903 31.8C122.877 31.4933 122.05 31.1 121.423 30.62L122.523 28.18C123.123 28.6067 123.83 28.96 124.643 29.24C125.47 29.5067 126.303 29.64 127.143 29.64C127.783 29.64 128.297 29.58 128.683 29.46C129.083 29.3267 129.377 29.1467 129.563 28.92C129.75 28.6933 129.843 28.4333 129.843 28.14C129.843 27.7667 129.697 27.4733 129.403 27.26C129.11 27.0333 128.723 26.8533 128.243 26.72C127.763 26.5733 127.23 26.44 126.643 26.32C126.07 26.1867 125.49 26.0267 124.903 25.84C124.33 25.6533 123.803 25.4133 123.323 25.12C122.843 24.8267 122.45 24.44 122.143 23.96C121.85 23.48 121.703 22.8667 121.703 22.12C121.703 21.32 121.917 20.5933 122.343 19.94C122.783 19.2733 123.437 18.7467 124.303 18.36C125.183 17.96 126.283 17.76 127.603 17.76C128.483 17.76 129.35 17.8667 130.203 18.08C131.057 18.28 131.81 18.5867 132.463 19L131.463 21.46C130.81 21.0867 130.157 20.8133 129.503 20.64C128.85 20.4533 128.21 20.36 127.583 20.36C126.957 20.36 126.443 20.4333 126.043 20.58C125.643 20.7267 125.357 20.92 125.183 21.16C125.01 21.3867 124.923 21.6533 124.923 21.96C124.923 22.32 125.07 22.6133 125.363 22.84C125.657 23.0533 126.043 23.2267 126.523 23.36C127.003 23.4933 127.53 23.6267 128.103 23.76C128.69 23.8933 129.27 24.0467 129.843 24.22C130.43 24.3933 130.963 24.6267 131.443 24.92C131.923 25.2133 132.31 25.6 132.603 26.08C132.91 26.56 133.063 27.1667 133.063 27.9C133.063 28.6867 132.843 29.4067 132.403 30.06C131.963 30.7133 131.303 31.24 130.423 31.64C129.557 32.04 128.457 32.24 127.123 32.24ZM137.982 32V20.64H133.502V18H145.702V20.64H141.222V32H137.982ZM144.902 32L151.142 18H154.342L160.602 32H157.202L152.082 19.64H153.362L148.222 32H144.902ZM148.022 29L148.882 26.54H156.082L156.962 29H148.022ZM168.619 32.24C167.513 32.24 166.493 32.0667 165.559 31.72C164.639 31.36 163.833 30.8533 163.139 30.2C162.459 29.5467 161.926 28.78 161.539 27.9C161.166 27.02 160.979 26.0533 160.979 25C160.979 23.9467 161.166 22.98 161.539 22.1C161.926 21.22 162.466 20.4533 163.159 19.8C163.853 19.1467 164.666 18.6467 165.599 18.3C166.533 17.94 167.559 17.76 168.679 17.76C169.919 17.76 171.033 17.9667 172.019 18.38C173.019 18.7933 173.859 19.3933 174.539 20.18L172.459 22.1C171.953 21.5667 171.399 21.1733 170.799 20.92C170.199 20.6533 169.546 20.52 168.839 20.52C168.159 20.52 167.539 20.6267 166.979 20.84C166.419 21.0533 165.933 21.36 165.519 21.76C165.119 22.16 164.806 22.6333 164.579 23.18C164.366 23.7267 164.259 24.3333 164.259 25C164.259 25.6533 164.366 26.2533 164.579 26.8C164.806 27.3467 165.119 27.8267 165.519 28.24C165.933 28.64 166.413 28.9467 166.959 29.16C167.519 29.3733 168.133 29.48 168.799 29.48C169.439 29.48 170.059 29.38 170.659 29.18C171.273 28.9667 171.866 28.6133 172.439 28.12L174.279 30.46C173.519 31.0333 172.633 31.4733 171.619 31.78C170.619 32.0867 169.619 32.24 168.619 32.24ZM171.319 30.04V24.78H174.279V30.46L171.319 30.04ZM180.269 23.64H187.009V26.16H180.269V23.64ZM180.509 29.4H188.129V32H177.289V18H187.869V20.6H180.509V29.4ZM92.24 48.128C91.5147 48.128 90.88 47.968 90.336 47.648C89.792 47.328 89.3653 46.8427 89.056 46.192C88.7573 45.5307 88.608 44.6987 88.608 43.696C88.608 42.6827 88.752 41.8507 89.04 41.2C89.328 40.5493 89.744 40.064 90.288 39.744C90.832 39.424 91.4827 39.264 92.24 39.264C93.0507 39.264 93.776 39.4507 94.416 39.824C95.0667 40.1867 95.5787 40.6987 95.952 41.36C96.336 42.0213 96.528 42.8 96.528 43.696C96.528 44.6027 96.336 45.3867 95.952 46.048C95.5787 46.7093 95.0667 47.2213 94.416 47.584C93.776 47.9467 93.0507 48.128 92.24 48.128ZM87.152 51.104V39.392H89.536V41.152L89.488 43.712L89.648 46.256V51.104H87.152ZM91.808 46.08C92.224 46.08 92.592 45.984 92.912 45.792C93.2427 45.6 93.504 45.328 93.696 44.976C93.8987 44.6133 94 44.1867 94 43.696C94 43.1947 93.8987 42.768 93.696 42.416C93.504 42.064 93.2427 41.792 92.912 41.6C92.592 41.408 92.224 41.312 91.808 41.312C91.392 41.312 91.0187 41.408 90.688 41.6C90.3573 41.792 90.096 42.064 89.904 42.416C89.712 42.768 89.616 43.1947 89.616 43.696C89.616 44.1867 89.712 44.6133 89.904 44.976C90.096 45.328 90.3573 45.6 90.688 45.792C91.0187 45.984 91.392 46.08 91.808 46.08ZM98.1989 48V39.392H100.583V41.824L100.247 41.12C100.503 40.512 100.914 40.0533 101.479 39.744C102.044 39.424 102.732 39.264 103.543 39.264V41.568C103.436 41.5573 103.34 41.552 103.255 41.552C103.17 41.5413 103.079 41.536 102.983 41.536C102.3 41.536 101.746 41.7333 101.319 42.128C100.903 42.512 100.695 43.1147 100.695 43.936V48H98.1989ZM109.061 48.128C108.143 48.128 107.327 47.936 106.613 47.552C105.909 47.168 105.349 46.6453 104.933 45.984C104.527 45.312 104.325 44.5493 104.325 43.696C104.325 42.832 104.527 42.0693 104.933 41.408C105.349 40.736 105.909 40.2133 106.613 39.84C107.327 39.456 108.143 39.264 109.061 39.264C109.967 39.264 110.778 39.456 111.493 39.84C112.207 40.2133 112.767 40.7307 113.173 41.392C113.578 42.0533 113.781 42.8213 113.781 43.696C113.781 44.5493 113.578 45.312 113.173 45.984C112.767 46.6453 112.207 47.168 111.493 47.552C110.778 47.936 109.967 48.128 109.061 48.128ZM109.061 46.08C109.477 46.08 109.85 45.984 110.181 45.792C110.511 45.6 110.773 45.328 110.965 44.976C111.157 44.6133 111.253 44.1867 111.253 43.696C111.253 43.1947 111.157 42.768 110.965 42.416C110.773 42.064 110.511 41.792 110.181 41.6C109.85 41.408 109.477 41.312 109.061 41.312C108.645 41.312 108.271 41.408 107.941 41.6C107.61 41.792 107.343 42.064 107.141 42.416C106.949 42.768 106.853 43.1947 106.853 43.696C106.853 44.1867 106.949 44.6133 107.141 44.976C107.343 45.328 107.61 45.6 107.941 45.792C108.271 45.984 108.645 46.08 109.061 46.08ZM114.095 48L117.951 42.944L117.903 44.32L114.207 39.392H117.007L119.343 42.608L118.287 42.64L120.703 39.392H123.359L119.647 44.272V42.928L123.487 48H120.655L118.207 44.576L119.247 44.72L116.815 48H114.095ZM124.699 48V39.392H127.195V48H124.699ZM125.947 38.192C125.488 38.192 125.115 38.0587 124.827 37.792C124.539 37.5253 124.395 37.1947 124.395 36.8C124.395 36.4053 124.539 36.0747 124.827 35.808C125.115 35.5413 125.488 35.408 125.947 35.408C126.406 35.408 126.779 35.536 127.067 35.792C127.355 36.0373 127.499 36.3573 127.499 36.752C127.499 37.168 127.355 37.5147 127.067 37.792C126.79 38.0587 126.416 38.192 125.947 38.192ZM133.783 48.128C132.802 48.128 131.938 47.936 131.191 47.552C130.455 47.168 129.885 46.6453 129.479 45.984C129.074 45.312 128.871 44.5493 128.871 43.696C128.871 42.832 129.069 42.0693 129.463 41.408C129.869 40.736 130.418 40.2133 131.111 39.84C131.805 39.456 132.589 39.264 133.463 39.264C134.306 39.264 135.063 39.4453 135.735 39.808C136.418 40.16 136.957 40.672 137.351 41.344C137.746 42.0053 137.943 42.8 137.943 43.728C137.943 43.824 137.938 43.936 137.927 44.064C137.917 44.1813 137.906 44.2933 137.895 44.4H130.903V42.944H136.583L135.623 43.376C135.623 42.928 135.533 42.5387 135.351 42.208C135.17 41.8773 134.919 41.6213 134.599 41.44C134.279 41.248 133.906 41.152 133.479 41.152C133.053 41.152 132.674 41.248 132.343 41.44C132.023 41.6213 131.773 41.8827 131.591 42.224C131.41 42.5547 131.319 42.9493 131.319 43.408V43.792C131.319 44.2613 131.421 44.6773 131.623 45.04C131.837 45.392 132.13 45.664 132.503 45.856C132.887 46.0373 133.335 46.128 133.847 46.128C134.306 46.128 134.706 46.0587 135.047 45.92C135.399 45.7813 135.719 45.5733 136.007 45.296L137.335 46.736C136.941 47.184 136.445 47.5307 135.847 47.776C135.25 48.0107 134.562 48.128 133.783 48.128ZM142.501 48.128C141.765 48.128 141.056 48.0427 140.373 47.872C139.701 47.6907 139.168 47.4667 138.773 47.2L139.605 45.408C140 45.6533 140.464 45.856 140.997 46.016C141.541 46.1653 142.074 46.24 142.597 46.24C143.173 46.24 143.578 46.1707 143.813 46.032C144.058 45.8933 144.181 45.7013 144.181 45.456C144.181 45.2533 144.085 45.104 143.893 45.008C143.712 44.9013 143.466 44.8213 143.157 44.768C142.848 44.7147 142.506 44.6613 142.133 44.608C141.77 44.5547 141.402 44.4853 141.029 44.4C140.656 44.304 140.314 44.1653 140.005 43.984C139.696 43.8027 139.445 43.5573 139.253 43.248C139.072 42.9387 138.981 42.5387 138.981 42.048C138.981 41.504 139.136 41.024 139.445 40.608C139.765 40.192 140.224 39.8667 140.821 39.632C141.418 39.3867 142.133 39.264 142.965 39.264C143.552 39.264 144.149 39.328 144.757 39.456C145.365 39.584 145.872 39.7707 146.277 40.016L145.445 41.792C145.029 41.5467 144.608 41.3813 144.181 41.296C143.765 41.2 143.36 41.152 142.965 41.152C142.41 41.152 142.005 41.2267 141.749 41.376C141.493 41.5253 141.365 41.7173 141.365 41.952C141.365 42.1653 141.456 42.3253 141.637 42.432C141.829 42.5387 142.08 42.624 142.389 42.688C142.698 42.752 143.034 42.8107 143.397 42.864C143.77 42.9067 144.144 42.976 144.517 43.072C144.89 43.168 145.226 43.3067 145.525 43.488C145.834 43.6587 146.085 43.8987 146.277 44.208C146.469 44.5067 146.565 44.9013 146.565 45.392C146.565 45.9253 146.405 46.4 146.085 46.816C145.765 47.2213 145.301 47.5413 144.693 47.776C144.096 48.0107 143.365 48.128 142.501 48.128Z" fill="white"/>
<defs>
<filter id="filter0_d_1_9069" x="-2.75" y="6.12501" width="97.5" height="97.5" filterUnits="userSpaceOnUse" color-interpolation-filters="sRGB">
<feFlood flood-opacity="0" result="BackgroundImageFix"/>
<feColorMatrix in="SourceAlpha" type="matrix" values="0 0 0 0 0 0 0 0 0 0 0 0 0 0 0 0 0 0 127 0" result="hardAlpha"/>
<feOffset dy="22.125"/>
<feGaussianBlur stdDeviation="15"/>
<feComposite in2="hardAlpha" operator="out"/>
<feColorMatrix type="matrix" values="0 0 0 0 0 0 0 0 0 0 0 0 0 0 0 0 0 0 0.6 0"/>
<feBlend mode="normal" in2="BackgroundImageFix" result="effect1_dropShadow_1_9069"/>
<feBlend mode="normal" in="SourceGraphic" in2="effect1_dropShadow_1_9069" result="shape"/>
</filter>
<filter id="filter1_d_1_9069" x="-28.25" y="0.124018" width="148.5" height="108.821" filterUnits="userSpaceOnUse" color-interpolation-filters="sRGB">
<feFlood flood-opacity="0" result="BackgroundImageFix"/>
<feColorMatrix in="SourceAlpha" type="matrix" values="0 0 0 0 0 0 0 0 0 0 0 0 0 0 0 0 0 0 127 0" result="hardAlpha"/>
<feOffset dy="22.125"/>
<feGaussianBlur stdDeviation="22.125"/>
<feComposite in2="hardAlpha" operator="out"/>
<feColorMatrix type="matrix" values="0 0 0 0 0 0 0 0 0 0 0 0 0 0 0 0 0 0 0.3 0"/>
<feBlend mode="normal" in2="BackgroundImageFix" result="effect1_dropShadow_1_9069"/>
<feBlend mode="normal" in="SourceGraphic" in2="effect1_dropShadow_1_9069" result="shape"/>
</filter>
<linearGradient id="paint0_linear_1_9069" x1="16" y1="22.249" x2="75.5219" y2="43.8856" gradientUnits="userSpaceOnUse">
<stop stop-color="#543BEE"/>
<stop offset="1" stop-color="#953BEE"/>
</linearGradient>
</defs>
</svg>
