<svg width="20" height="10" viewBox="0 0 20 10" fill="none" xmlns="http://www.w3.org/2000/svg">
<g clip-path="url(#clip0_0_9042)">
<path d="M6.54499 2.21559C6.42883 2.27131 6.33668 2.33747 6.27382 2.41029C6.21095 2.48311 6.17859 2.56116 6.17859 2.63999C6.17859 2.71881 6.21095 2.79687 6.27382 2.86969C6.33668 2.94251 6.42883 3.00867 6.54499 3.06439L10.3658 4.89879C10.4439 4.93629 10.4878 4.98716 10.4878 5.04019C10.4878 5.09322 10.4439 5.14408 10.3658 5.18159L6.54499 7.01559C6.31049 7.12809 6.17871 7.2807 6.17863 7.43985C6.17855 7.59899 6.31019 7.75163 6.54457 7.86419C6.77896 7.97675 7.0969 8.04 7.42844 8.04004C7.75999 8.04008 8.07799 7.97689 8.31249 7.86439L12.1342 6.02999C12.405 5.89998 12.6199 5.74564 12.7665 5.57578C12.9131 5.40591 12.9885 5.22385 12.9885 5.03999C12.9885 4.85613 12.9131 4.67406 12.7665 4.5042C12.6199 4.33433 12.405 4.17999 12.1342 4.04999L8.31249 2.21559C8.07808 2.10311 7.76019 2.03992 7.42874 2.03992C7.09728 2.03992 6.7794 2.10311 6.54499 2.21559Z" fill="white"/>
</g>
<defs>
<clipPath id="clip0_0_9042">
<rect width="9.6" height="20" fill="white" transform="translate(0 9.83984) rotate(-90)"/>
</clipPath>
</defs>
</svg>
