<svg xmlns="http://www.w3.org/2000/svg"><path fill="#fff" d="M34.85 26.188H5.15A3.723 3.723 0 0 0 1.436 29.9v4.95a3.723 3.723 0 0 0 3.712 3.712h29.7a3.723 3.723 0 0 0 3.713-3.712V29.9a3.723 3.723 0 0 0-3.713-3.712Zm1.237 8.662c0 .68-.557 1.237-1.238 1.237H5.15c-.68 0-1.237-.556-1.237-1.237V29.9c0-.68.557-1.237 1.237-1.237h29.7c.68 0 1.238.556 1.238 1.237v4.95Z"/><path fill="#fff" d="M8.862 30.94H7.624c-.68 0-1.237.556-1.237 1.237 0 .68.556 1.237 1.237 1.237h1.238c.68 0 1.237-.556 1.237-1.237 0-.68-.557-1.238-1.237-1.238ZM13.81 30.94h-1.238c-.68 0-1.237.556-1.237 1.237 0 .68.556 1.237 1.237 1.237h1.238c.68 0 1.237-.556 1.237-1.237 0-.68-.557-1.238-1.237-1.238ZM32.375 30.94H18.762c-.68 0-1.237.556-1.237 1.237 0 .68.557 1.237 1.237 1.237h13.613c.68 0 1.237-.556 1.237-1.237 0-.68-.557-1.238-1.237-1.238ZM23.714 24.95c.68 0 1.238-.557 1.238-1.237v-6.349l1.794 1.188a1.25 1.25 0 0 0 1.72-.346 1.24 1.24 0 0 0-.346-1.72l-3.713-2.475a1.27 1.27 0 0 0-1.275-.062c-.408.21-.655.63-.655 1.089V23.7c0 .68.556 1.238 1.237 1.238v.012ZM15.605 24.74c.21.136.446.21.681.21.198 0 .396-.05.582-.148.408-.21.656-.632.656-1.09V15.05c0-.68-.557-1.238-1.238-1.238-.68 0-1.237.557-1.237 1.238v6.348l-1.795-1.188a1.24 1.24 0 0 0-1.72.347 1.24 1.24 0 0 0 .347 1.72l3.712 2.475.012-.012Z"/><path fill="#7759FF" d="M36.088 1.437H3.913a2.482 2.482 0 0 0-2.475 2.475v4.95a2.482 2.482 0 0 0 2.475 2.475h32.175a2.482 2.482 0 0 0 2.475-2.475v-4.95a2.482 2.482 0 0 0-2.475-2.475ZM8.863 7.625H7.625c-.68 0-1.237-.557-1.237-1.238 0-.68.557-1.237 1.237-1.237h1.238c.68 0 1.238.557 1.238 1.237s-.557 1.238-1.238 1.238Zm4.95 0h-1.238c-.68 0-1.237-.557-1.237-1.238 0-.68.557-1.237 1.238-1.237h1.237c.68 0 1.237.557 1.237 1.237s-.556 1.238-1.237 1.238Zm18.563 0H18.763c-.68 0-1.238-.557-1.238-1.238 0-.68.557-1.237 1.238-1.237h13.613c.68 0 1.237.557 1.237 1.237s-.557 1.238-1.237 1.238Z"/></svg>