<svg xmlns="http://www.w3.org/2000/svg" width="40" height="40" fill="none"><g clip-path="url(#a)"><path fill="#fff" d="M19.071.777A18.921 18.921 0 0 0 1.437 19.872v4.839c-.01.214.038.427.136.618l6.188 10.717a3.712 3.712 0 0 0 3.254 1.856 3.713 3.713 0 0 0 1.844-.495 3.713 3.713 0 0 0 1.782-3.885l1.238-.73a3.712 3.712 0 0 0 1.348-5.074l-2.475-4.282a3.612 3.612 0 0 0-2.178-1.733 3.713 3.713 0 0 0-2.809.372l-1.237.73a3.602 3.602 0 0 0-2.883-.875 3.713 3.713 0 0 0-1.374.466l-.359.174v-3.23A16.087 16.087 0 0 1 20.816 3.252 16.384 16.384 0 0 1 36.087 19.81v.767a1.237 1.237 0 0 0 2.475 0V19.34A18.562 18.562 0 0 0 19.072.777Zm-8.105 23.439a1.238 1.238 0 0 1 .94-.124c.313.085.58.29.743.57l2.475 4.293a1.237 1.237 0 0 1-.446 1.683l-1.076.619-3.713-6.423 1.077-.618Zm-5.532.334a1.238 1.238 0 0 1 .94-.124c.318.082.59.287.756.57l4.95 8.575a1.237 1.237 0 1 1-2.141 1.238l-5.57-9.64 1.065-.62Z"/><path fill="#7759FF" d="M30.272 22.075a3.712 3.712 0 0 0-2.81-.371 3.613 3.613 0 0 0-2.252 1.732l-2.475 4.282a3.713 3.713 0 0 0 1.35 5.074l1.076.619 6.187-10.717-1.076-.619ZM38.562 24.39a1.312 1.312 0 0 0-.581-.755l-2.141-1.238a3.786 3.786 0 0 0-1.238-.42l-1.732 3.019-4.95 8.576-1.733 3.02c.275.322.601.598.965.816a3.711 3.711 0 0 0 1.844.495 3.713 3.713 0 0 0 3.23-1.856l6.188-10.717a1.3 1.3 0 0 0 .148-.94Z"/></g><defs><clipPath id="a"><path fill="#fff" d="M.2.2h39.6v39.6H.2z"/></clipPath></defs></svg>