<svg xmlns="http://www.w3.org/2000/svg" width="40" height="41" fill="none"><path fill="#fff" d="M31.137 1.938H8.863a1.237 1.237 0 1 0 0 2.474h.618V15.55a1.238 1.238 0 0 0 .656 1.089l7.227 3.861-7.264 3.861a1.238 1.238 0 0 0-.619 1.089v2.005a1.237 1.237 0 0 0 2.475 0v-1.238L20 21.898l8.044 4.294v1.238a1.237 1.237 0 1 0 2.475 0v-1.98a1.237 1.237 0 0 0-.656-1.089L22.636 20.5l7.264-3.861a1.237 1.237 0 0 0 .619-1.089V4.412h.619a1.237 1.237 0 1 0 0-2.474ZM20 19.102l-8.044-4.295v-.148A19.96 19.96 0 0 1 20 13.075a19.96 19.96 0 0 1 8.044 1.584v.148L20 19.102Zm8.044-7.14A23.512 23.512 0 0 0 20 10.6a23.513 23.513 0 0 0-8.044 1.361V4.412h16.088v7.55Z"/><path fill="#7759FF" d="M31.14 36.587H8.864a1.238 1.238 0 0 0 0 2.475H31.14a1.238 1.238 0 0 0 0-2.475ZM30.521 32.157c-2.203-1.757-6.138-2.995-10.519-2.995-4.38 0-8.316 1.238-10.518 2.995v1.955H30.52v-1.955Z"/></svg>