<svg xmlns="http://www.w3.org/2000/svg" width="40" height="41" fill="none"><path fill="#fff" d="M35.762 4.791a13.808 13.808 0 0 0-19.532 0L1.413 19.611a3.826 3.826 0 0 0 0 5.406 3.949 3.949 0 0 0 5.4 0l3.095-3.098a1.133 1.133 0 0 1 .83-.343 1.185 1.185 0 0 1 1.146 1.414 1.188 1.188 0 0 1-.317.604l-6.4 6.42a3.826 3.826 0 0 0 0 5.407 3.949 3.949 0 0 0 5.4 0l6.4-6.422a1.211 1.211 0 0 1 1.673 0 1.188 1.188 0 0 1 0 1.675l-3.095 3.098a3.826 3.826 0 0 0 0 5.367 3.792 3.792 0 0 0 2.7 1.12 3.752 3.752 0 0 0 2.634-1.12l14.883-14.78a13.865 13.865 0 0 0 0-19.568ZM19.088 37.32a1.172 1.172 0 0 1-1.647 0 1.175 1.175 0 0 1 0-1.688l3.096-3.098a3.825 3.825 0 0 0-2.7-6.514 3.751 3.751 0 0 0-2.7 1.121l-6.44 6.408a1.184 1.184 0 0 1-1.966-.853c-.01-.301.094-.595.292-.821l6.44-6.421a3.76 3.76 0 0 0 1.12-2.637 3.799 3.799 0 0 0-1.12-2.77 3.949 3.949 0 0 0-5.399 0l-3.121 3.112a1.237 1.237 0 0 1-1.673 0 1.214 1.214 0 0 1 0-1.687L18.087 6.664a11.155 11.155 0 0 1 7.902-3.286 11.145 11.145 0 0 1 7.902 3.286 11.214 11.214 0 0 1 0 15.822L19.088 37.319ZM33.785 32.388a1.33 1.33 0 0 0-2.273.942c0 .354.14.693.39.943l1.804 1.82a1.316 1.316 0 0 0 .935.382 1.316 1.316 0 0 0 1.224-1.826 1.32 1.32 0 0 0-.289-.429l-1.79-1.832ZM38.83 27.76l-2.463-.646a1.316 1.316 0 0 0-1.69 1.442 1.32 1.32 0 0 0 1.005 1.103l2.463.659c.114.018.23.018.343 0a1.327 1.327 0 0 0 1.488-1.147 1.33 1.33 0 0 0-1.146-1.49v.079ZM29.164 36.172a1.319 1.319 0 0 0-2.095-.74 1.316 1.316 0 0 0-.447 1.425l.659 2.466a1.319 1.319 0 0 0 1.317.976h.342a1.317 1.317 0 0 0 .922-1.622l-.698-2.505ZM6.312 8.654c.245.244.576.381.922.383a1.316 1.316 0 0 0 .961-.383 1.318 1.318 0 0 0 0-1.885l-1.83-1.807a1.318 1.318 0 1 0-1.87 1.86l1.817 1.832ZM10.937 4.87a1.318 1.318 0 0 0 1.317.976c.113.014.228.014.342 0a1.317 1.317 0 0 0 .87-1.661l-.66-2.466a1.32 1.32 0 0 0-1.624-.974 1.316 1.316 0 0 0-.917 1.66l.672 2.465ZM1.268 13.283l2.463.659h.343a1.327 1.327 0 0 0 1.488-1.147 1.33 1.33 0 0 0-1.146-1.49l-2.463-.66a1.316 1.316 0 0 0-1.69 1.443 1.32 1.32 0 0 0 1.005 1.102v.093Z"/><path fill="#7759FF" d="M25.989 23.805a9.212 9.212 0 0 0 5.122-1.556 9.227 9.227 0 0 0 3.92-9.475 9.233 9.233 0 0 0-2.523-4.725 9.216 9.216 0 0 0-10.047-2.001A9.237 9.237 0 0 0 19.47 21.1a9.214 9.214 0 0 0 6.519 2.704Zm0-13.186a1.316 1.316 0 0 1 1.317 1.319v2.096l2.239 2.242a1.318 1.318 0 0 1-1.857 1.872l-2.634-2.637a1.318 1.318 0 0 1-.382-.936v-2.637a1.32 1.32 0 0 1 1.317-1.319Z"/></svg>