<svg xmlns="http://www.w3.org/2000/svg" width="40" height="41" fill="none"><g clip-path="url(#a)"><path fill="#fff" d="M34.846 31.638a3.712 3.712 0 0 0-3.428 2.302l-4.666-.78a1.236 1.236 0 0 1-.841-.57 1.237 1.237 0 0 0-2.129 1.238 3.713 3.713 0 0 0 2.562 1.757l4.95.817a3.713 3.713 0 1 0 3.552-4.764Zm0 4.95a1.238 1.238 0 1 1 0-2.476 1.238 1.238 0 0 1 0 2.476ZM15.779 32.157a1.238 1.238 0 0 0-1.695.433 1.238 1.238 0 0 1-.83.57l-4.677.779a3.712 3.712 0 1 0 .111 2.475l4.95-.817a3.713 3.713 0 0 0 2.55-1.757 1.237 1.237 0 0 0-.409-1.683Zm-10.63 4.43a1.237 1.237 0 1 1 0-2.474 1.237 1.237 0 0 1 0 2.474ZM5.767 24.212h.841a1.237 1.237 0 0 0 0-2.475h-.841a1.856 1.856 0 0 1 0-3.712h.173a1.237 1.237 0 0 0 .977-.47 1.237 1.237 0 0 0 .223-1.065 3.712 3.712 0 0 1-.136-.94 3.713 3.713 0 0 1 3.49-3.713 1.238 1.238 0 0 0 1.126-.928 8.662 8.662 0 0 1 16.756 0 1.237 1.237 0 0 0 1.126.928 3.713 3.713 0 0 1 3.49 3.713c-.005.318-.051.634-.137.94a1.238 1.238 0 0 0 .223 1.065 1.237 1.237 0 0 0 .978.47h.173a1.856 1.856 0 1 1 0 3.712h-.841a1.237 1.237 0 1 0 0 2.475h.841a4.331 4.331 0 0 0 1.238-8.489v-.173a6.187 6.187 0 0 0-4.95-6.04 11.137 11.137 0 0 0-21.038 0 6.187 6.187 0 0 0-4.95 6.04v.173a4.332 4.332 0 0 0 1.238 8.49ZM19.996 32.875a1.238 1.238 0 0 0-1.237 1.237v3.713a1.238 1.238 0 0 0 2.475 0v-3.713a1.238 1.238 0 0 0-1.238-1.237Z"/><path fill="#7759FF" d="M19.998 10.6a9.9 9.9 0 0 0-9.9 9.9 9.777 9.777 0 0 0 1.028 4.356 9.9 9.9 0 0 1 4.715-4.653 4.466 4.466 0 0 1-.174-1.15 4.331 4.331 0 1 1 8.663 0 4.47 4.47 0 0 1-.173 1.15 9.9 9.9 0 0 1 4.714 4.653 9.775 9.775 0 0 0 1.027-4.356 9.9 9.9 0 0 0-9.9-9.9Z"/><path fill="#7759FF" d="M19.999 20.908a1.856 1.856 0 1 0 0-3.712 1.856 1.856 0 0 0 0 3.712ZM22.821 22.32a4.27 4.27 0 0 1-5.643 0 7.425 7.425 0 0 0-4.344 4.95 9.9 9.9 0 0 0 14.33 0 7.425 7.425 0 0 0-4.343-4.95Z"/></g><defs><clipPath id="a"><path fill="#fff" d="M.201.7h39.6v39.6H.201z"/></clipPath></defs></svg>