<svg xmlns="http://www.w3.org/2000/svg" width="40" height="41" fill="none"><path fill="#fff" d="M16.284 24.572a1.238 1.238 0 0 0 1.237-1.238v-5.309l.978.99a1.238 1.238 0 0 0 1.757 0 1.238 1.238 0 0 0 0-1.757l-3.094-3.094a1.238 1.238 0 0 0-1.757 0l-3.094 3.094a1.242 1.242 0 1 0 1.758 1.757l.977-.99v5.272a1.238 1.238 0 0 0 1.238 1.274Z"/><path fill="#fff" d="M28.66 6.368 16.706 2.012a1.237 1.237 0 0 0-.842 0L3.91 6.368a3.712 3.712 0 0 0-2.475 3.49v8.538a21.99 21.99 0 0 0 14.43 20.592c.271.099.569.099.84 0a22.336 22.336 0 0 0 3.886-1.844 1.236 1.236 0 1 0-1.237-2.128 18.464 18.464 0 0 1-3.07 1.485A19.49 19.49 0 0 1 3.91 18.396V9.857a1.238 1.238 0 0 1 .817-1.163l11.558-4.207 11.558 4.207a1.238 1.238 0 0 1 .817 1.163V18.1a1.238 1.238 0 0 0 2.475 0V9.857a3.712 3.712 0 0 0-2.475-3.49Z"/><path fill="#fff" d="m25.369 10.427-8.663-3.144a1.237 1.237 0 0 0-.841 0l-8.663 3.144a1.237 1.237 0 0 0-.817 1.163v6.794a17.102 17.102 0 0 0 9.343 15.16c.173.088.364.134.557.135.193.003.384-.04.557-.123.57-.289 1.12-.615 1.646-.978a1.237 1.237 0 0 0-1.41-2.03 9.61 9.61 0 0 1-.793.495 14.65 14.65 0 0 1-7.425-12.66v-5.927l7.425-2.698 7.425 2.698v6.064a1.247 1.247 0 1 0 2.475.297 2.567 2.567 0 0 0 0-.433V11.59a1.238 1.238 0 0 0-.816-1.163Z"/><path fill="#7759FF" d="M29.899 20.5a8.663 8.663 0 1 0 0 17.325 8.663 8.663 0 0 0 0-17.325Zm0 11.447a1.236 1.236 0 0 1-1.757 0l-2.055-2.055a1.237 1.237 0 0 1 0-1.757 1.237 1.237 0 0 1 1.758 0l1.175 1.238 2.933-2.946a1.236 1.236 0 0 1 1.757 0 1.236 1.236 0 0 1 0 1.758L29.9 31.947Z"/></svg>