<svg width="15" height="16" viewBox="0 0 15 16" fill="none" xmlns="http://www.w3.org/2000/svg">
<g clip-path="url(#clip0_1_9060)">
<path d="M7.5 4.62354C7.00272 4.62354 6.52581 4.82108 6.17417 5.17271C5.82254 5.52434 5.625 6.00125 5.625 6.49854V13.9985C5.625 14.4958 5.82254 14.9727 6.17417 15.3244C6.52581 15.676 7.00272 15.8735 7.5 15.8735C7.99728 15.8735 8.47419 15.676 8.82583 15.3244C9.17746 14.9727 9.375 14.4958 9.375 13.9985V6.49854C9.375 6.00125 9.17746 5.52434 8.82583 5.17271C8.47419 4.82108 7.99728 4.62354 7.5 4.62354Z" fill="white"/>
<path d="M13.125 0.873535C12.6277 0.873535 12.1508 1.07108 11.7992 1.42271C11.4475 1.77434 11.25 2.25125 11.25 2.74854V13.9985C11.25 14.4958 11.4475 14.9727 11.7992 15.3244C12.1508 15.676 12.6277 15.8735 13.125 15.8735C13.6223 15.8735 14.0992 15.676 14.4508 15.3244C14.8025 14.9727 15 14.4958 15 13.9985V2.74854C15 2.25125 14.8025 1.77434 14.4508 1.42271C14.0992 1.07108 13.6223 0.873535 13.125 0.873535V0.873535Z" fill="white"/>
<path d="M1.875 8.37354C1.37772 8.37354 0.900805 8.57108 0.549175 8.92271C0.197544 9.27434 0 9.75125 0 10.2485L0 13.9985C0 14.4958 0.197544 14.9727 0.549175 15.3244C0.900805 15.676 1.37772 15.8735 1.875 15.8735C2.37228 15.8735 2.84919 15.676 3.20083 15.3244C3.55246 14.9727 3.75 14.4958 3.75 13.9985V10.2485C3.75 9.75125 3.55246 9.27434 3.20083 8.92271C2.84919 8.57108 2.37228 8.37354 1.875 8.37354Z" fill="white"/>
</g>
<defs>
<clipPath id="clip0_1_9060">
<rect width="15" height="15" fill="white" transform="translate(0 0.873535)"/>
</clipPath>
</defs>
</svg>
