<svg xmlns="http://www.w3.org/2000/svg" aria-hidden="true" style="position:absolute;width:0;height:0;overflow:hidden"><defs><symbol id="advantage1" viewBox="0 0 29 32"><path fill="none" stroke="#fff" stroke-linecap="round" stroke-width="1.362" d="M.794 30.86H27.57" style="stroke:var(--color1, #fff)"/><path fill="#fff" d="M23.712 2.913c-1.078-1.077-2.567-1.743-4.211-1.743s-3.133.666-4.211 1.743l-2.755 2.725h-.484a8.936 8.936 0 1 0 8.936 8.936v-.484l2.748-2.755a5.94 5.94 0 0 0 1.732-4.2c0-1.65-.671-3.143-1.754-4.222zM12.05 22.021h-.071a7.447 7.447 0 1 1 0-14.894h.075-.004a7.448 7.448 0 0 1 .004 14.894h-.004zm5.168-14.722 1.229-1.229c.274-.26.645-.419 1.054-.419s.779.16 1.054.42l-.001-.001c.27.27.437.642.437 1.054s-.167.784-.437 1.054l-1.228 1.229a8.915 8.915 0 0 0-2.081-2.089l-.027-.018zm3.455 4.967a9.122 9.122 0 0 0-.589-1.589l.024.055 1.489-1.49c.538-.539.87-1.282.87-2.104s-.332-1.565-.87-2.104c-.546-.522-1.287-.843-2.104-.843s-1.558.321-2.105.845l.001-.001-1.49 1.49a8.792 8.792 0 0 0-1.469-.55l-.065-.015 1.981-1.988a4.471 4.471 0 0 1 6.323 6.323l-1.996 1.973z" style="fill:var(--color1, #fff)"/><path fill="#7738c8" d="M12.051 8.617a5.958 5.958 0 0 0 0 11.916 5.958 5.958 0 0 0 0-11.916zm2.666 8.08a.745.745 0 0 1-.617.328H14.091a.696.696 0 0 1-.404-.128l.002.001-2.048-1.363a.745.745 0 0 1-.335-.618v-2.048a.745.745 0 1 1 1.49 0v1.646l1.713 1.147a.744.744 0 0 1 .206 1.038l.002-.003z" style="fill:var(--color2, #7738c8)"/></symbol><symbol id="advantage2" viewBox="0 0 29 32"><path fill="none" stroke="#fff" stroke-linecap="round" stroke-width="1.391" d="M.811 31.304h27.541" style="stroke:var(--color1, #fff)"/><path fill="#fff" d="M14.424 18.708h-3.742a.749.749 0 0 0-.001 1.496h3.743a.749.749 0 0 0 .001-1.496h-.001z" style="fill:var(--color1, #fff)"/><path fill="#fff" d="M17.791 5.987a.75.75 0 0 0 .749-.749V2.993A2.245 2.245 0 0 0 16.295.748H8.812a2.245 2.245 0 0 0-2.245 2.245v17.96a2.245 2.245 0 0 0 2.245 2.245h7.483a2.245 2.245 0 0 0 2.245-2.245V18.685a.75.75 0 0 0-1.498 0v.024-.001 2.245a.75.75 0 0 1-.749.749H8.81a.75.75 0 0 1-.749-.749V2.993c0-.413.335-.748.749-.748h.584l.576 1.736a.749.749 0 0 0 .709.509h3.746a.748.748 0 0 0 .707-.504l.002-.005.576-1.736h.584a.75.75 0 0 1 .749.748v2.245a.75.75 0 0 0 .748.749zm-3.906-2.994h-2.664l-.247-.748h3.158l-.247.748z" style="fill:var(--color1, #fff)"/><path fill="#7738c8" d="M20.036 6.734h-7.484c-.826 0-1.496.67-1.496 1.496V15.716c0 .826.67 1.496 1.496 1.496h7.484a1.498 1.498 0 0 0 1.496-1.497V8.231c0-.826-.67-1.496-1.496-1.496zm-3.742 6.735a.747.747 0 0 1-1.054 0l-.965-.95a.749.749 0 1 1 1.062-1.056l.456.457 1.497-1.497a.748.748 0 0 1 1.062 0 .746.746 0 0 1 0 1.062l-2.058 1.983z" style="fill:var(--color2, #7738c8)"/></symbol><symbol id="advantage3" viewBox="0 0 29 32"><path fill="none" stroke="#fff" stroke-linecap="round" stroke-width="1.362" d="M.794 30.69H27.57" style="stroke:var(--color1, #fff)"/><path fill="#fff" d="M24.354 11.588c-2.008-4.209-6.212-7.076-11.09-7.12h-.006a12.38 12.38 0 0 0-11.064 7.045l-.032.075a.738.738 0 0 0 .002.66l-.002-.004c2.009 4.209 6.212 7.075 11.09 7.119h.006a12.38 12.38 0 0 0 11.064-7.044l.032-.075a.738.738 0 0 0-.002-.66l.002.004zm-11.096 6.284a10.881 10.881 0 0 1-9.563-5.897l-.029-.061c1.819-3.531 5.422-5.913 9.586-5.957h.006a10.883 10.883 0 0 1 9.563 5.897l.029.061c-1.819 3.531-5.422 5.913-9.585 5.957h-.006zm.002-14.893a.745.745 0 0 0 .744-.745V1.49a.745.745 0 0 0-1.489-.001v.745c0 .411.333.745.745.745zm-4.663.358a.745.745 0 1 0 1.243-.821l.002.002-.432-.64a.746.746 0 1 0-1.236.82l-.001-.001.424.641zm8.295.216a.745.745 0 0 0 1.027-.213l.002-.003.424-.64a.743.743 0 0 0-.165-1.086l-.003-.002a.744.744 0 0 0-1.065.265l-.002.004-.432.64a.746.746 0 0 0 .214 1.034l.003.002zM13.26 20.851a.745.745 0 0 0-.745.745v.768a.745.745 0 1 0 1.49 0v-.024.001-.745a.745.745 0 0 0-.744-.745zm-3.635-.573a.745.745 0 0 0-1.027.213l-.002.003-.424.641a.744.744 0 1 0 1.235.823l.002-.004.432-.64a.746.746 0 0 0-.213-1.033l-.003-.002zm8.295.216a.745.745 0 1 0-1.242.823l-.002-.003.432.64a.746.746 0 1 0 1.235-.821l.001.001-.424-.64z" style="fill:var(--color1, #fff)"/><path fill="#7738c8" d="M17.317 11.498v-.089a.747.747 0 0 0-.644-.648h-.004a2.597 2.597 0 0 1-2.232-2.221l-.001-.013a.747.747 0 0 0-.644-.648h-.093a2.53 2.53 0 0 0-.433-.059h-.006a4.095 4.095 0 1 0 4.095 4.095 2.659 2.659 0 0 0-.039-.432l.002.016z" style="fill:var(--color2, #7738c8)"/></symbol><symbol id="advantage4" viewBox="0 0 29 32"><path fill="none" stroke="#fff" stroke-linecap="round" stroke-width="1.362" d="M.794 30.69H27.57" style="stroke:var(--color1, #fff)"/><path fill="#fff" d="M23.248 14.702H4.632a1.862 1.862 0 0 0-1.862 1.862v3.724c0 1.028.834 1.861 1.862 1.861h18.616a1.862 1.862 0 0 0 1.862-1.861v-3.724a1.862 1.862 0 0 0-1.862-1.861zm.373 5.585a.368.368 0 0 1-.372.372H4.63a.369.369 0 0 1-.369-.369V16.563c0-.208.163-.372.372-.372h18.616c.209 0 .372.163.372.372v3.724z" style="fill:var(--color1, #fff)"/><path fill="#fff" d="M17.448 17.152a.742.742 0 0 0-1.05 0l-.216.216-.216-.216a.742.742 0 0 0-1.05 0 .742.742 0 0 0 0 1.05l.216.216-.216.216a.742.742 0 0 0 .526 1.266h.003c.193 0 .38-.075.529-.216l.216-.216.216.216c.149.148.335.216.529.216s.379-.075.528-.216a.737.737 0 0 0 0-1.05l-.216-.216.216-.216a.742.742 0 0 0 0-1.05h-.015zm-4.468 0a.737.737 0 0 0-1.05 0l-.216.216-.216-.216a.742.742 0 1 0-1.05 1.05l.216.216-.216.216a.742.742 0 0 0 .526 1.266h.003c.194 0 .38-.075.529-.216l.216-.216.216.216c.15.148.336.216.529.216s.38-.075.529-.216a.737.737 0 0 0 0-1.05l-.217-.216.216-.216a.742.742 0 0 0 0-1.05h-.015zm-4.469 0a.742.742 0 0 0-1.05 0l-.216.216-.216-.216a.737.737 0 0 0-1.05 0 .742.742 0 0 0 0 1.05l.216.216-.216.216a.742.742 0 0 0 .526 1.266h.003c.193 0 .38-.075.529-.216l.216-.216.216.216c.149.148.335.216.528.216s.38-.075.529-.216a.737.737 0 0 0 0-1.05l-.216-.216.216-.216a.742.742 0 0 0 0-1.05h-.015zm13.406 0a.742.742 0 0 0-1.05 0l-.216.216-.216-.216a.742.742 0 1 0-1.05 1.05l.216.216-.216.216a.742.742 0 0 0 .526 1.266h.003a.765.765 0 0 0 .528-.216l.216-.216.216.216c.15.148.336.216.529.216s.38-.075.529-.216a.737.737 0 0 0 0-1.05l-.217-.216.216-.216a.742.742 0 0 0 0-1.05h-.015z" style="fill:var(--color1, #fff)"/><path fill="#7738c8" d="M13.941 6.703a1.862 1.862 0 0 0 0-3.724 1.862 1.862 0 0 0 0 3.724zm2.143.692a3.297 3.297 0 0 1-2.144.797h-.001a3.294 3.294 0 0 1-2.149-.8l.004.004a3.713 3.713 0 0 0-1.579 3.03v.372c0 1.028.834 1.862 1.862 1.862h3.724a1.862 1.862 0 0 0 1.861-1.862v-.372a3.7 3.7 0 0 0-1.567-3.023l-.012-.008z" style="fill:var(--color2, #7738c8)"/></symbol><symbol id="btn-arrow-client" viewBox="0 0 32 32"><path fill="#fff" d="m24.475 23.803 5.016-5.016c.786-.822 1.269-1.939 1.269-3.168s-.484-2.346-1.271-3.17l.002.002-5.016-5.015a1.92 1.92 0 0 0-2.716 2.716l3.558 3.56-23.36.03a1.92 1.92 0 0 0 0 3.84l23.336-.03-3.535 3.54a1.92 1.92 0 0 0 2.716 2.713l.001.001z" style="fill:var(--color1, #fff)"/></symbol><symbol id="client-vector" viewBox="0 0 32 32"><path fill="none" stroke="#fff" stroke-linecap="round" stroke-linejoin="round" stroke-width="1.488" d="M30.835.871v10.002c0 11.047-8.956 20.004-20.004 20.004H.829" style="stroke:var(--color1, #fff)"/></symbol><symbol id="hero-signal" viewBox="0 0 30 32"><path fill="#fff" d="M15 9.248a3.75 3.75 0 0 0-3.75 3.75v15a3.75 3.75 0 0 0 7.5 0v-15A3.75 3.75 0 0 0 15 9.248zm11.25-7.5a3.75 3.75 0 0 0-3.75 3.75v22.5a3.75 3.75 0 0 0 7.5 0V5.496a3.75 3.75 0 0 0-3.75-3.748zm-22.5 15A3.75 3.75 0 0 0 0 20.496v7.5a3.75 3.75 0 0 0 7.5 0v-7.5a3.75 3.75 0 0 0-3.75-3.748z" style="fill:var(--color1, #fff)"/></symbol><symbol id="logo" viewBox="0 0 36 32"><path d="M19.009 9.615a5.505 5.505 0 1 1-11.01 0 5.505 5.505 0 0 1 11.01 0z"/><path d="M18.526 12.403c-.167.031-3.398.598-5.022-1.46-1.291 1.622-3.579 1.673-4.997 1.466C4.382 11.298 4.7 7.076 4.703 7.035a.31.31 0 0 1 .218-.273l.002-.001a.317.317 0 0 1 .337.1c.009.013 1.035 1.256 2.36 1.303.737.031 1.455-.339 2.102-1.035.783-.622 2.607-1.096 3.782.39a2.643 2.643 0 0 1 1.595-.966l.016-.003a3.083 3.083 0 0 1 2.18.585l-.009-.006c.647.696 1.365 1.067 2.102 1.035 1.325-.047 2.35-1.29 2.36-1.302a.316.316 0 0 1 .557.172v.001c.003.041.321 4.263-3.779 5.368z"/></symbol><symbol id="mobile-menu-open" viewBox="0 0 42 32"><path fill="#fff" d="M39.475 13.369H2.633a2.633 2.633 0 0 0-.004 5.263h36.845a2.632 2.632 0 0 0 0-5.264zM2.632 6.351h36.842a2.633 2.633 0 0 0 .004-5.263H2.633a2.633 2.633 0 0 0-.004 5.263h.003zm36.843 19.3H2.633a2.633 2.633 0 0 0-.004 5.263h36.845a2.632 2.632 0 0 0 0-5.264z" style="fill:var(--color1, #fff)"/></symbol><symbol id="nav-errow" viewBox="0 0 32 32"><path fill="#fff" d="M2.491.987a3.827 3.827 0 0 0-1.237.884l-.002.002a1.6 1.6 0 0 0-.434 1.049v.002c0 .361.146.718.434 1.051.342.369.754.668 1.215.877l.024.01 17.463 8.393c.361.169.562.402.562.645s-.201.475-.558.649L2.491 22.928C1.417 23.44.818 24.139.818 24.866s.599 1.426 1.673 1.938c1.07.517 2.523.805 4.037.805 1.518 0 2.971-.288 4.041-.805l17.472-8.384c1.239-.594 2.222-1.298 2.889-2.075a3.732 3.732 0 0 0 1.019-2.444v-.006a3.74 3.74 0 0 0-1.021-2.452l.002.002a8.878 8.878 0 0 0-2.834-2.053l-.055-.023L10.569.985A9.5 9.5 0 0 0 6.528.181h.009c-1.518 0-2.971.288-4.041.805z" style="fill:var(--color1, #fff)"/></symbol><symbol id="price-btn-large" viewBox="0 0 8 32"><path fill="none" stroke="#fff" stroke-linecap="round" stroke-width="1.016" d="M.761.837c7.901 7.902 7.901 22.539 0 30.44" opacity=".6" style="stroke:var(--color1, #fff)"/></symbol><symbol id="price-btn-small" viewBox="0 0 8 32"><path fill="none" stroke="#fff" stroke-linecap="round" stroke-width="1.684" d="M1.377.842c7.705 7.705 7.705 21.98 0 29.686" opacity=".6" style="stroke:var(--color1, #fff)"/></symbol><symbol id="price-vector" viewBox="0 0 2016 32"><path fill="none" stroke="#fff" stroke-linecap="round" stroke-width="21.333" d="M10.667 17.568h1994.667" style="stroke:var(--color1, #fff)"/></symbol><symbol id="profile-icon" viewBox="0 0 32 32"><path fill="#fff" d="M16 .615C7.538.615.615 7.538.615 16c0 4 1.538 7.846 4.462 10.769l.154.154c1.846 1.692 4 3.077 6.308 3.846 1.538.462 3.077.615 4.615.615s3.077-.308 4.615-.615a17.545 17.545 0 0 0 6.321-3.704l-.013.012.154-.154C30 24 31.693 20.154 31.693 16.154 31.385 7.539 24.462.616 16.001.616zm0 3.077c6.769 0 12.308 5.538 12.308 12.308 0 2.615-.769 5.077-2.308 7.077-1.231-2-3.077-3.385-5.231-4.308 1.077-1.231 1.846-2.769 1.846-4.615 0-3.692-2.923-6.615-6.615-6.615s-6.615 2.923-6.615 6.615c0 1.846.769 3.385 1.846 4.615-2.154.923-3.846 2.462-5.231 4.308-1.538-2-2.308-4.615-2.308-7.077C3.692 9.231 9.23 3.692 16 3.692z" style="fill:var(--color1, #fff)"/></symbol><symbol id="service1" viewBox="0 0 32 32"><path fill="#fff" d="M27.88 20.95H4.12a2.978 2.978 0 0 0-2.971 2.969v3.96a2.98 2.98 0 0 0 2.969 2.97h23.76a2.979 2.979 0 0 0 2.97-2.969v-3.96a2.98 2.98 0 0 0-2.97-2.97zm.99 6.93c0 .544-.446.99-.99.99H4.121a.993.993 0 0 1-.99-.99v-3.96c0-.544.446-.99.99-.99h23.76c.544 0 .99.445.99.99v3.96z" style="fill:var(--color1, #fff)"/><path fill="#fff" d="M7.09 24.752H6.1c-.544 0-.99.445-.99.99s.445.99.99.99h.99c.544 0 .99-.445.99-.99s-.446-.99-.99-.99zm3.958 0h-.99c-.544 0-.99.445-.99.99s.445.99.99.99h.99c.544 0 .99-.445.99-.99s-.446-.99-.99-.99zm14.852 0H15.01c-.544 0-.99.445-.99.99s.446.99.99.99H25.9c.544 0 .99-.445.99-.99s-.446-.99-.99-.99zm-6.929-4.792c.544 0 .99-.446.99-.99v-5.079l1.435.95a.998.998 0 0 0 1.373-.274l.002-.003a.991.991 0 0 0-.273-1.374l-.004-.002-2.97-1.98a1.01 1.01 0 0 0-1.026-.046l.006-.003a.973.973 0 0 0-.524.871v6.93c0 .544.445.99.99.99v.01zm-6.487-.168c.168.109.357.168.545.168.158 0 .317-.04.466-.118a.977.977 0 0 0 .525-.872v-6.93c0-.544-.446-.99-.99-.99s-.99.446-.99.99v5.078l-1.436-.95a.99.99 0 0 0-1.373.274l-.002.004a.99.99 0 0 0 .274 1.373l.004.002 2.97 1.98.01-.01z" style="fill:var(--color1, #fff)"/><path fill="#7759ff" d="M28.87 1.15H3.13a1.986 1.986 0 0 0-1.98 1.98v3.96a1.986 1.986 0 0 0 1.98 1.98h25.74a1.986 1.986 0 0 0 1.98-1.98V3.13a1.986 1.986 0 0 0-1.98-1.98zM7.09 6.1H6.1c-.544 0-.99-.446-.99-.99s.446-.99.99-.99h.99c.544 0 .99.446.99.99s-.446.99-.99.99zm3.96 0h-.99c-.544 0-.99-.446-.99-.99s.446-.99.99-.99h.99c.544 0 .99.446.99.99s-.445.99-.99.99zm14.851 0h-10.89c-.544 0-.99-.446-.99-.99s.446-.99.99-.99h10.89c.544 0 .99.446.99.99s-.446.99-.99.99z" style="fill:var(--color5, #7759ff)"/></symbol><symbol id="service2" viewBox="0 0 31 32"><path fill="#fff" d="M12.709 19.178a.966.966 0 0 0 .965-.966v-4.144l.763.773a.965.965 0 0 0 1.372 0 .965.965 0 0 0 0-1.372l-2.415-2.415a.965.965 0 0 0-1.372 0l-2.415 2.415a.97.97 0 1 0 1.372 1.372l.763-.773v4.143c0 .534.433.966.966.966z" style="fill:var(--color1, #fff)"/><path fill="#fff" d="m22.369 4.97-9.33-3.4a.962.962 0 0 0-.664.002l.007-.002-9.33 3.4A2.904 2.904 0 0 0 1.12 7.693v6.664c.02 7.343 4.648 13.6 11.144 16.033l.118.039a.96.96 0 0 0 .656 0 17.27 17.27 0 0 0 3.11-1.483l-.077.044a.965.965 0 1 0-.969-1.659l.003-.002c-.682.42-1.471.81-2.297 1.126l-.099.033c-5.693-2.277-9.644-7.741-9.658-14.129V7.693c0-.415.263-.769.631-.906l.007-.002 9.021-3.284 9.021 3.284a.969.969 0 0 1 .638.908v6.434a.966.966 0 0 0 1.932.002V7.694a2.899 2.899 0 0 0-1.912-2.718l-.02-.006z" style="fill:var(--color1, #fff)"/><path fill="#fff" d="m19.8 8.138-6.761-2.454a.956.956 0 0 0-.663.002l.007-.002-6.761 2.454a.969.969 0 0 0-.638.908v5.303a13.347 13.347 0 0 0 7.218 11.797l.074.035a.956.956 0 0 0 .435.105c.151.002.3-.031.435-.096.445-.226.874-.48 1.285-.763a.966.966 0 0 0-.584-1.733.963.963 0 0 0-.52.152l.004-.002a6.916 6.916 0 0 1-.582.367l-.037.019c-3.467-1.992-5.77-5.665-5.795-9.877v-4.63l5.795-2.106 5.795 2.106v4.733a.973.973 0 1 0 1.931.235v-.004a1.79 1.79 0 0 0-.001-.346l.001.008V9.046a.967.967 0 0 0-.63-.906l-.007-.002z" style="fill:var(--color1, #fff)"/><path fill="#7759ff" d="M23.336 16h-.073a6.761 6.761 0 1 0 0 13.522h.077-.004A6.762 6.762 0 0 0 23.34 16h-.004zm0 8.934a.962.962 0 0 1-1.372 0L20.36 23.33a.962.962 0 0 1 0-1.372.962.962 0 0 1 1.372 0l.917.966 2.289-2.299a.962.962 0 0 1 1.372 0 .962.962 0 0 1 .001 1.372l-2.974 2.936z" style="fill:var(--color5, #7759ff)"/></symbol><symbol id="service3" viewBox="0 0 31 32"><path fill="#fff" d="M27.197 24.693a2.898 2.898 0 0 0-2.668 1.778l-.007.019-3.642-.609a.97.97 0 0 1-.654-.441l-.002-.004a.966.966 0 0 0-1.659.972l-.003-.006a2.91 2.91 0 0 0 1.982 1.369l.017.003 3.863.638a2.904 2.904 0 0 0 2.779 2.078 2.897 2.897 0 1 0 0-5.796h-.008zm0 3.863a.966.966 0 0 1 0-1.932.966.966 0 0 1 0 1.932zm-14.882-3.458a.966.966 0 0 0-1.32.333l-.002.004a.968.968 0 0 1-.642.444l-.006.001-3.65.608a2.903 2.903 0 0 0-2.685-1.809 2.897 2.897 0 1 0 2.766 3.761l.006-.021 3.863-.638a2.908 2.908 0 0 0 1.983-1.358l.007-.013a.965.965 0 0 0-.315-1.311l-.004-.002zm-8.296 3.458a.965.965 0 1 1 0-1.93.965.965 0 1 1 0 1.93zm.482-9.659h.656a.966.966 0 0 0 0-1.932h-.656a1.45 1.45 0 0 1 0-2.898h.14a.965.965 0 0 0 .756-.365l.002-.002a.96.96 0 0 0 .173-.838l.002.007a2.796 2.796 0 0 1-.106-.731v-.007c0-1.539 1.2-2.798 2.716-2.892h.008a.967.967 0 0 0 .877-.718l.002-.007c.787-2.925 3.416-5.044 6.539-5.044s5.752 2.118 6.528 4.996l.011.047a.967.967 0 0 0 .876.724h.003a2.9 2.9 0 0 1 2.724 2.893v.005c-.004.248-.04.495-.107.734a.968.968 0 0 0 .175.834l-.002-.002a.965.965 0 0 0 .757.367H26.716a1.45 1.45 0 0 1 0 2.898h-.656a.966.966 0 0 0 0 1.932h.677a3.38 3.38 0 0 0 .969-6.619l-.024-.006v-.135a4.832 4.832 0 0 0-3.832-4.709l-.031-.006c-1.217-3.427-4.432-5.837-8.21-5.837s-6.993 2.41-8.191 5.776l-.019.061c-2.214.464-3.855 2.396-3.863 4.713v.136a3.389 3.389 0 0 0-2.433 3.245 3.381 3.381 0 0 0 3.381 3.381h.019-.001zm11.106 6.762a.965.965 0 0 0-.965.965v2.898a.966.966 0 0 0 1.932.002v-2.899a.966.966 0 0 0-.966-.965z" style="fill:var(--color1, #fff)"/><path fill="#7759ff" d="M15.608 8.273A7.727 7.727 0 0 0 7.881 16a7.597 7.597 0 0 0 .822 3.443l-.02-.043a7.787 7.787 0 0 1 3.633-3.612l.047-.02a3.419 3.419 0 0 1-.136-.894v-.004a3.381 3.381 0 0 1 6.762 0c-.006.322-.055.63-.141.922l.006-.025a7.778 7.778 0 0 1 3.659 3.586l.02.045a7.527 7.527 0 0 0 .802-3.4 7.727 7.727 0 0 0-7.727-7.727z" style="fill:var(--color5, #7759ff)"/><path fill="#7759ff" d="M15.609 16.318a1.45 1.45 0 0 0 0-2.898 1.45 1.45 0 0 0 0 2.898zm2.202 1.103c-.584.516-1.356.831-2.202.831s-1.618-.315-2.206-.834l.004.003a5.823 5.823 0 0 0-3.381 3.823l-.009.041c1.41 1.477 3.394 2.395 5.592 2.395s4.182-.918 5.589-2.392l.003-.003a5.823 5.823 0 0 0-3.352-3.849l-.038-.014z" style="fill:var(--color5, #7759ff)"/></symbol><symbol id="service4" viewBox="0 0 31 32"><path fill="#fff" d="M27.912 3.739C25.962 1.788 23.267.581 20.29.581s-5.672 1.207-7.622 3.158L1.103 15.306c-.539.54-.873 1.286-.873 2.11s.334 1.569.873 2.11c.55.516 1.291.833 2.107.833s1.558-.317 2.109-.834l-.002.002 2.416-2.418a.883.883 0 0 1 .634-.268h.015-.001a.925.925 0 0 1 .894 1.11l.001-.006a.927.927 0 0 1-.248.472l-4.995 5.011c-.539.54-.873 1.286-.873 2.11s.334 1.57.873 2.11c.55.516 1.291.833 2.107.833s1.558-.317 2.109-.834l-.002.002 4.995-5.012a.94.94 0 0 1 1.306 0 .925.925 0 0 1 0 1.308l-2.416 2.418c-.53.539-.858 1.278-.858 2.094s.327 1.556.858 2.095a2.95 2.95 0 0 0 2.1.874h.008a2.921 2.921 0 0 0 2.055-.874l11.616-11.536c1.949-1.957 3.154-4.656 3.154-7.636S29.86 5.7 27.911 3.743zM14.898 29.128a.912.912 0 0 1-1.286 0 .915.915 0 0 1 0-1.318l2.416-2.418a2.986 2.986 0 0 0-2.107-5.084H13.9c-.817 0-1.556.335-2.087.875l-5.026 5.001a.925.925 0 0 1-1.535-.664v-.001a.924.924 0 0 1 .228-.641l5.026-5.012a2.923 2.923 0 0 0 .874-2.056v-.002l.001-.059c0-.822-.334-1.566-.875-2.103-.55-.516-1.291-.833-2.107-.833s-1.557.317-2.109.834l.002-.002-2.436 2.429a.965.965 0 0 1-1.307-.001l.001.001a.945.945 0 0 1 0-1.317L14.114 5.2a8.68 8.68 0 0 1 6.167-2.565c2.41 0 4.592.981 6.167 2.564 1.575 1.582 2.549 3.765 2.549 6.174s-.974 4.592-2.549 6.175L14.894 29.125zm11.471-3.85a1.038 1.038 0 0 0-1.774.732v.003c0 .276.109.541.304.736l1.408 1.421c.186.184.441.298.724.298h.014a1.027 1.027 0 0 0 .944-1.432l.003.007a1.02 1.02 0 0 0-.226-.335l-1.397-1.43zm3.937-3.612-1.922-.504a1.027 1.027 0 0 0-1.318 1.131l-.001-.006c.061.424.372.761.777.859l.007.001 1.922.514a.86.86 0 0 0 .268 0 1.035 1.035 0 0 0 1.161-.89l.001-.005a1.039 1.039 0 0 0-.889-1.163l-.005-.001v.062zm-7.544 6.566a1.031 1.031 0 0 0-1.637-.576l.002-.002a1.028 1.028 0 0 0-.347 1.119l-.002-.007.514 1.925c.122.443.521.762.994.762l.035-.001h-.002.267a1.03 1.03 0 0 0 .718-1.274l.002.007-.545-1.955zM4.926 6.754c.191.19.45.297.72.299h.025c.283 0 .539-.114.725-.299a1.026 1.026 0 0 0 .001-1.471l-1.428-1.41A1.03 1.03 0 0 0 3.51 5.325l1.418 1.43zm3.61-2.953c.121.443.52.762.994.762l.036-.001h-.002c.088.011.178.011.267 0a1.03 1.03 0 0 0 .677-1.304l.002.007-.515-1.925A1.033 1.033 0 0 0 8.72.581l.007-.002a1.03 1.03 0 0 0-.714 1.303l-.002-.007.524 1.924zM.99 10.367l1.922.514h.268a1.035 1.035 0 0 0 1.161-.89l.001-.005a1.039 1.039 0 0 0-.889-1.163l-.005-.001-1.922-.515A1.027 1.027 0 0 0 .208 9.439l-.001-.006c.061.424.373.761.777.859l.007.001v.073z" style="fill:var(--color1, #fff)"/><path fill="#7759ff" d="M20.284 18.579c1.49 0 2.875-.454 4.023-1.231l-.025.016c1.94-1.311 3.199-3.502 3.199-5.987 0-.498-.051-.985-.147-1.455l.008.046a7.22 7.22 0 0 0-1.969-3.688 7.171 7.171 0 0 0-5.089-2.109c-.993 0-1.939.201-2.8.565l.047-.018c-2.629 1.115-4.44 3.674-4.44 6.656 0 1.988.804 3.788 2.106 5.092a7.167 7.167 0 0 0 5.088 2.11zm0-10.291h.001c.567 0 1.027.46 1.027 1.027v1.638l1.747 1.75a1.03 1.03 0 0 1-1.45 1.461l-2.056-2.058a1.027 1.027 0 0 1-.298-.724V9.317c0-.568.46-1.028 1.028-1.029z" style="fill:var(--color5, #7759ff)"/></symbol><symbol id="service5" viewBox="0 0 31 32"><path fill="#fff" d="M24.302 1.513H6.917a.965.965 0 1 0 0 1.93h.482v8.693a.966.966 0 0 0 .507.847l.005.003 5.641 3.013-5.669 3.013a.967.967 0 0 0-.483.837v.014-.001 1.565a.966.966 0 0 0 1.932 0v-.966l6.278-3.371 6.278 3.351v.966a.966.966 0 0 0 1.932 0v-1.545a.965.965 0 0 0-.507-.847l-.005-.003-5.641-3.013 5.669-3.013a.966.966 0 0 0 .483-.836v-.014.001-8.693h.483a.965.965 0 1 0 0-1.93zM15.61 14.909l-6.278-3.352v-.116c1.795-.782 3.887-1.238 6.085-1.238l.204.001h-.01l.193-.001c2.198 0 4.29.455 6.186 1.276l-.101-.039v.116l-6.278 3.352zm6.278-5.573c-1.833-.674-3.949-1.063-6.156-1.063h-.129.007-.124c-2.207 0-4.322.389-6.282 1.103l.128-.041V3.443h12.556v5.893z" style="fill:var(--color1, #fff)"/><path fill="#7759ff" d="M24.304 28.556H6.918a.966.966 0 0 0-.002 1.932h17.387a.966.966 0 0 0 .002-1.932h-.001zm-.483-3.458c-1.719-1.371-4.791-2.338-8.21-2.338s-6.491.966-8.209 2.338v1.526H23.82v-1.526z" style="fill:var(--color5, #7759ff)"/></symbol><symbol id="service6" viewBox="0 0 32 32"><path fill="#fff" d="M15.257.622C7.352 1.177 1.149 7.726 1.149 15.724l.001.183v-.009 3.871a.975.975 0 0 0 .109.494l4.95 8.574a2.973 2.973 0 0 0 2.572 1.485h.033-.002a2.948 2.948 0 0 0 1.489-.404l-.014.008a2.972 2.972 0 0 0 1.422-3.127l.003.019.99-.584a2.973 2.973 0 0 0 1.071-4.073l.008.014-1.98-3.426a2.902 2.902 0 0 0-1.722-1.381l-.02-.005a2.962 2.962 0 0 0-2.261.305l.014-.008-.99.584a2.87 2.87 0 0 0-2.321-.698l.015-.002a2.97 2.97 0 0 0-1.113.38l.014-.008-.287.139v-2.601c0-7.108 5.762-12.87 12.87-12.87.23 0 .458.006.685.018l-.032-.001c6.846.48 12.218 6.151 12.218 13.077l-.001.178v-.009.614a.99.99 0 1 0 1.98 0v-1.009C30.85 7.251 24.202.602 16 .602c-.261 0-.521.007-.779.02l.036-.001zM8.773 19.373a.975.975 0 0 1 .759-.098l-.007-.002c.25.068.464.232.594.456l1.98 3.434a.99.99 0 0 1-.352 1.344l-.005.003-.861.495-2.97-5.138.862-.494zm-4.426.267a.975.975 0 0 1 .759-.098l-.007-.002c.254.066.472.23.605.456l3.96 6.86a.99.99 0 1 1-1.711.995l-.003-.005-4.456-7.712.852-.496z" style="fill:var(--color1, #fff)"/><path fill="#7759ff" d="M24.218 17.66a2.932 2.932 0 0 0-1.483-.397 3 3 0 0 0-.786.105l.021-.005a2.903 2.903 0 0 0-1.794 1.371l-.007.014-1.98 3.426c-.252.427-.4.941-.4 1.489 0 1.092.589 2.046 1.467 2.562l.014.008.861.495 4.95-8.574-.861-.495zm6.632 1.852a1.054 1.054 0 0 0-.46-.601l-.005-.003-1.713-.99a2.973 2.973 0 0 0-.973-.334l-.017-.002-1.386 2.415-3.96 6.861-1.386 2.416c.22.258.481.478.772.653.423.248.932.395 1.475.396h.012a2.97 2.97 0 0 0 2.565-1.471l.008-.014 4.95-8.574a1.028 1.028 0 0 0 .117-.759l.001.007z" style="fill:var(--color5, #7759ff)"/></symbol><symbol id="star-price" viewBox="0 0 32 32"><path d="M31.61 16.116c0 8.621-6.989 15.61-15.61 15.61S.39 24.737.39 16.116C.39 7.495 7.379.506 16 .506s15.61 6.989 15.61 15.61z" style="fill:var(--color4, #000)"/><path fill="#fff" d="m9.336 16.367 2.223 1.623-.845 2.614a1.981 1.981 0 0 0 .733 2.252l.006.004c.325.242.735.388 1.178.388.451 0 .866-.15 1.199-.403l-.005.004 2.174-1.6 2.174 1.598a2.015 2.015 0 0 0 3.107-2.255l.004.014-.844-2.615 2.223-1.623a2.015 2.015 0 0 0-1.187-3.642h-2.731l-.828-2.582c-.269-.819-1.026-1.399-1.919-1.399s-1.65.581-1.915 1.385l-.004.014-.829 2.583h-2.728a2.014 2.014 0 0 0-1.192 3.637l.006.004h-.002z" style="fill:var(--color1, #fff)"/></symbol><symbol id="trial-arrow" viewBox="0 0 13 32"><path fill="#fff" d="M4.176.31a.187.187 0 1 0-.283-.245l.283.245zm8.17 30.759a.187.187 0 0 0 .086-.251l.001.001-.735-1.515a.187.187 0 1 0-.336.165l-.001-.001.653 1.347-1.347.653a.187.187 0 1 0 .165.336h-.001l1.515-.735zM4.035.187 3.893.065l-.001.001-.004.004a2.719 2.719 0 0 0-.058.07l-.004.006a12.893 12.893 0 0 0-.771 1.089l-.033.055a18.358 18.358 0 0 0-1.685 3.479C.243 7.785-.491 12.135.94 17.474l.361-.097c-1.408-5.254-.685-9.525.388-12.48a17.908 17.908 0 0 1 1.65-3.408c.219-.35.418-.639.628-.919l-.024.034c.084-.112.156-.203.229-.292l-.011.013.011-.013.003-.003.001-.001-.141-.123zM.94 17.476c1.431 5.34 4.241 8.739 6.697 10.804a18.354 18.354 0 0 0 3.198 2.171c.247.137.574.297.907.444l.087.034a6.192 6.192 0 0 0 .348.139l.019.007.005.002h.003l.062-.177.061-.177h-.001l-.004-.002-.016-.006a6.758 6.758 0 0 1-.38-.152l.051.02a12.41 12.41 0 0 1-1.035-.499l.069.034a17.984 17.984 0 0 1-3.133-2.126c-2.407-2.023-5.168-5.36-6.576-10.614l-.361.097z" style="fill:var(--color1, #fff)"/></symbol><symbol id="trial-btn-icon" viewBox="0 0 32 32"><path fill="#fff" d="M12.67 32H2.003a2 2 0 1 1 0-4h10.669a2 2 0 1 1 0 4zm-2.667-6.669h-8a2 2 0 1 1 0-4h8a2 2 0 1 1 0 4zm-2.665-6.664H2.004a2 2 0 1 1 0-4h5.334a2 2 0 1 1 0 4z" style="fill:var(--color1, #fff)"/><path fill="#fff" d="M19.338 31.629h-.002a2 2 0 0 1-.484-3.941l.014-.003c5.303-1.332 9.167-6.057 9.167-11.685 0-6.644-5.386-12.03-12.03-12.03-4.775 0-8.9 2.782-10.843 6.813l-.031.072a2 2 0 1 1-3.61-1.724l-.005.012C4.145 3.674 9.643-.034 16.007-.034c8.854 0 16.032 7.178 16.032 16.032 0 7.504-5.155 13.803-12.116 15.55l-.111.023a1.993 1.993 0 0 1-.472.058z" style="fill:var(--color1, #fff)"/><path fill="#fff" d="M16.672 8a2 2 0 0 0-2 2v5.723c0 .709.28 1.386.779 1.886l2.392 2.39a2 2 0 0 0 2.827-2.829l.001.001-2-2V10a2 2 0 0 0-1.998-2z" style="fill:var(--color1, #fff)"/></symbol></defs></svg>