<svg width="20" height="20" viewBox="0 0 20 20" fill="none" xmlns="http://www.w3.org/2000/svg">
<g clip-path="url(#clip0_1_8668)">
<path d="M7.91899 20H1.25232C0.920799 20 0.602856 19.8683 0.368436 19.6339C0.134015 19.3995 0.00231934 19.0815 0.00231934 18.75C0.00231934 18.4185 0.134015 18.1005 0.368436 17.8661C0.602856 17.6317 0.920799 17.5 1.25232 17.5H7.91899C8.25051 17.5 8.56845 17.6317 8.80287 17.8661C9.03729 18.1005 9.16899 18.4185 9.16899 18.75C9.16899 19.0815 9.03729 19.3995 8.80287 19.6339C8.56845 19.8683 8.25051 20 7.91899 20Z" fill="white"/>
<path d="M6.25232 15.8325H1.25232C0.920799 15.8325 0.602856 15.7008 0.368436 15.4664C0.134015 15.232 0.00231934 14.914 0.00231934 14.5825C0.00231934 14.251 0.134015 13.9331 0.368436 13.6986C0.602856 13.4642 0.920799 13.3325 1.25232 13.3325H6.25232C6.58384 13.3325 6.90178 13.4642 7.1362 13.6986C7.37062 13.9331 7.50232 14.251 7.50232 14.5825C7.50232 14.914 7.37062 15.232 7.1362 15.4664C6.90178 15.7008 6.58384 15.8325 6.25232 15.8325Z" fill="white"/>
<path d="M4.58565 11.667H1.25232C0.920799 11.667 0.602856 11.5353 0.368436 11.3009C0.134015 11.0665 0.00231934 10.7485 0.00231934 10.417C0.00231934 10.0855 0.134015 9.76753 0.368436 9.53311C0.602856 9.29869 0.920799 9.16699 1.25232 9.16699H4.58565C4.91717 9.16699 5.23512 9.29869 5.46954 9.53311C5.70396 9.76753 5.83565 10.0855 5.83565 10.417C5.83565 10.7485 5.70396 11.0665 5.46954 11.3009C5.23512 11.5353 4.91717 11.667 4.58565 11.667Z" fill="white"/>
<path d="M12.0856 19.7676C11.7795 19.7679 11.484 19.6559 11.2551 19.4529C11.0261 19.2499 10.8795 18.97 10.8431 18.6661C10.8068 18.3623 10.8831 18.0556 11.0578 17.8043C11.2324 17.553 11.4931 17.3745 11.7906 17.3026C13.0232 17.0004 14.1593 16.3911 15.093 15.5314C16.0266 14.6717 16.7275 13.5897 17.1302 12.3862C17.5329 11.1826 17.6244 9.89668 17.3961 8.64823C17.1679 7.39978 16.6273 6.22943 15.8247 5.24624C15.0222 4.26305 13.9838 3.49903 12.8063 3.02537C11.6289 2.55171 10.3507 2.38382 9.09088 2.53736C7.83105 2.69089 6.63059 3.16085 5.60137 3.90344C4.57214 4.64603 3.74766 5.63708 3.20473 6.78424C3.05994 7.07904 2.80493 7.305 2.49485 7.41328C2.18477 7.52156 1.84454 7.50344 1.54771 7.36286C1.25088 7.22227 1.02131 6.97051 0.908629 6.662C0.79595 6.3535 0.809218 6.01304 0.945566 5.71424C1.66903 4.1851 2.7679 2.86405 4.13971 1.87421C5.51153 0.884383 7.11164 0.258008 8.79088 0.053482C10.4701 -0.151044 12.1738 0.072937 13.7431 0.704546C15.3124 1.33616 16.6962 2.35483 17.7656 3.6656C18.835 4.97637 19.555 6.53656 19.8587 8.20073C20.1623 9.8649 20.0397 11.5789 19.5021 13.1828C18.9646 14.7868 18.0297 16.2285 16.7846 17.3737C15.5394 18.5188 14.0247 19.33 12.3814 19.7317C12.2846 19.7553 12.1852 19.7674 12.0856 19.7676Z" fill="white"/>
<path d="M10.4191 5C10.0875 5 9.7696 5.1317 9.53518 5.36612C9.30076 5.60054 9.16907 5.91848 9.16907 6.25V9.82749C9.16916 10.2695 9.34482 10.6933 9.6574 11.0058L11.1516 12.5C11.3873 12.7277 11.7031 12.8537 12.0308 12.8508C12.3586 12.848 12.6721 12.7165 12.9038 12.4848C13.1356 12.253 13.2671 11.9395 13.2699 11.6117C13.2728 11.284 13.1468 10.9682 12.9191 10.7325L11.6691 9.48249V6.25C11.6691 5.91848 11.5374 5.60054 11.3029 5.36612C11.0685 5.1317 10.7506 5 10.4191 5Z" fill="white"/>
</g>
<defs>
<clipPath id="clip0_1_8668">
<rect width="20" height="20" fill="white" transform="translate(0.00231934)"/>
</clipPath>
</defs>
</svg>
