<svg width="197" height="203" viewBox="0 0 197 203" fill="none" xmlns="http://www.w3.org/2000/svg">
<path d="M9.42466 2.4694C9.6839 1.68258 9.25622 0.834578 8.4694 0.575337C7.68258 0.316095 6.83458 0.743783 6.57534 1.5306L9.42466 2.4694ZM196.339 189.675C196.712 188.936 196.415 188.034 195.675 187.661L183.622 181.581C182.882 181.208 181.98 181.506 181.607 182.245C181.234 182.985 181.531 183.887 182.271 184.26L192.985 189.664L187.581 200.378C187.208 201.118 187.506 202.02 188.245 202.393C188.985 202.766 189.887 202.469 190.26 201.729L196.339 189.675ZM8 2C6.57534 1.5306 6.57502 1.53156 6.5746 1.53284C6.57432 1.5337 6.57379 1.53532 6.57322 1.53705C6.57208 1.54052 6.57052 1.5453 6.56854 1.5514C6.56457 1.56359 6.55892 1.58101 6.55164 1.60363C6.53709 1.64886 6.51605 1.71484 6.48897 1.80116C6.43482 1.97379 6.35654 2.22778 6.25785 2.55981C6.06047 3.22385 5.78141 4.20018 5.45043 5.46227C4.78852 7.98622 3.91862 11.6543 3.07907 16.2541C1.40042 25.4512 -0.159554 38.3877 0.313251 53.3598C1.25903 83.3096 10.3458 121.467 42.9393 154.061L45.0607 151.939C13.1542 120.033 4.24098 82.6904 3.31175 53.2652C2.84706 38.5498 4.38083 25.8301 6.03031 16.7928C6.85482 12.2754 7.70757 8.68175 8.3523 6.22328C8.67464 4.99415 8.9449 4.0491 9.13351 3.41456C9.22781 3.0973 9.30169 2.8577 9.35145 2.69906C9.37633 2.61974 9.39518 2.56067 9.40754 2.52225C9.41372 2.50304 9.41827 2.489 9.42114 2.48017C9.42258 2.47576 9.4236 2.47265 9.42419 2.47085C9.42448 2.46995 9.4246 2.46959 9.42475 2.46914C9.42476 2.4691 9.42466 2.4694 8 2ZM42.9393 154.061C75.5329 186.654 113.69 195.741 143.64 196.687C158.612 197.16 171.549 195.6 180.746 193.921C185.346 193.081 189.014 192.211 191.538 191.55C192.8 191.219 193.776 190.94 194.44 190.742C194.772 190.643 195.026 190.565 195.199 190.511C195.285 190.484 195.351 190.463 195.396 190.448C195.419 190.441 195.436 190.435 195.449 190.431C195.455 190.429 195.459 190.428 195.463 190.427C195.465 190.426 195.466 190.426 195.467 190.425C195.468 190.425 195.469 190.425 195 189C194.531 187.575 194.531 187.575 194.531 187.575C194.53 187.575 194.53 187.576 194.529 187.576C194.527 187.576 194.524 187.577 194.52 187.579C194.511 187.582 194.497 187.586 194.478 187.592C194.439 187.605 194.38 187.624 194.301 187.649C194.142 187.698 193.903 187.772 193.585 187.866C192.951 188.055 192.006 188.325 190.777 188.648C188.318 189.292 184.725 190.145 180.207 190.97C171.17 192.619 158.45 194.153 143.735 193.688C114.31 192.759 76.9671 183.846 45.0607 151.939L42.9393 154.061Z" fill="white"/>
</svg>
